<svg version="1.2" xmlns="http://www.w3.org/2000/svg" viewBox="0 0 626 626" width="626" height="626">
	<title>logo-vector-diamante_18099-2019</title>
	<style>
		.s0 { fill: #010101 } 
	</style>
	<path id="Path 0" class="s0" d="m241.4 158.8c0.3 0.9 5.5 12.7 11.6 26.2 6.1 13.5 11.2 24.6 11.3 24.8 0.1 0.1 7.2-8.4 15.7-18.9 8.5-10.6 15.9-19.9 16.5-20.8 0.7-1.1 0.7-1.4-0.2-1.1-0.6 0.3-6.8 6.6-13.8 14-7 7.4-13.1 13.5-13.6 13.5-0.5 0-4.3-7.3-8.4-16.3-5.1-11-7.1-16.3-6.3-16.6 0.7-0.2 8.3-1.2 16.8-2.1 8.5-0.9 17.2-1.9 19.3-2.3 2-0.4 3.7-1 3.7-1.5 0-0.4-12-0.7-26.6-0.7-24.9 0-26.5 0.1-26 1.7zm90.6-1c0 0.5 1.7 1.1 3.7 1.5 2.1 0.4 10.8 1.4 19.3 2.3 8.5 0.9 16.1 1.9 16.8 2.1 0.8 0.3-1.2 5.6-6.3 16.6-4.1 9-7.9 16.3-8.4 16.3-0.5 0-6.6-6.1-13.6-13.5-6.9-7.4-13.1-13.6-13.8-13.8-0.7-0.2-0.5 0.3 0.4 1 0.9 0.7 1.7 1.7 1.8 2.3 0.1 0.6 6.8 9.2 14.9 19.3 9.5 11.9 14.9 17.9 15.4 17 0.3-0.7 5.3-11.7 11.1-24.3 5.7-12.7 10.7-24 11-25.3l0.7-2.2c-41.1 0-53 0.3-53 0.7zm-118.5 31.4c-8.3 11-15.7 20.9-16.5 22-1.5 2-1.4 2 29.8 1.9 20.1 0 31.2-0.4 31.2-1 0-0.6-2.7-7-5.9-14.3-3.3-7.2-7.3-16.4-9-20.2-1.7-3.9-3.3-6.8-3.6-6.5-0.2 0.3 2 7.9 5 17 3 9.1 5.5 17.1 5.5 17.7 0 1-4.8 1.3-20.5 1.3-19.1 0-20.5-0.1-19.9-1.8 0.3-0.9 4.9-9.1 10.1-18.2 5.3-9.1 9.7-16.8 9.8-17.3 0.1-0.4 0-0.7-0.4-0.7-0.3 0.1-7.4 9.1-15.6 20.1zm73.5 0.1c-10.7 12.1-19.3 22.5-19.2 23 0.1 0.4 19.8 0.8 43.7 0.8 23.9 0 43.5-0.3 43.5-0.8 0-0.4-6.9-9.3-15.3-19.7-8.3-10.5-16.2-20.4-17.5-22-1.2-1.7-2.4-2.8-2.7-2.5-0.3 0.3 4.7 8.6 11.1 18.5 6.4 9.9 11.8 18.6 12 19.2 0.3 1-6.4 1.3-31.1 1.3-24.7 0-31.4-0.3-31.1-1.3 0.2-0.6 5.6-8.5 12-17.5 6.4-8.9 11.6-16.6 11.6-17.2 0-0.6 0.4-1 1-1 0.6 0 1.2-0.7 1.4-1.5 0.2-0.8 0.2-1.5 0.1-1.5-0.1 0-8.9 10-19.5 22.2zm109.9-18.5c1.1 2.1 6 10.8 11 19.3 5 8.5 9.1 15.8 9.1 16.2 0 0.5-9.2 0.8-20.5 0.8-15.7 0-20.5-0.3-20.5-1.3 0-0.6 2.5-8.6 5.5-17.7 3-9.1 5.5-16.7 5.5-17 0-0.3-0.4-0.1-0.9 0.5-0.5 0.6-4.8 9.6-9.5 20-4.7 10.4-8.6 19.6-8.6 20.2 0 1 6.8 1.3 30.5 1.3 19.7 0 30.5-0.4 30.5-1 0-0.6-7.4-10.9-16.5-23-9.1-12.1-16.7-22-17-22-0.3 0 0.3 1.7 1.4 3.7zm-188.9 49.3c0 0.6 1 1.2 2.2 1.4 1.3 0.2 11.2 1.9 22.2 3.8l19.9 3.3c29.6 59.3 38.1 76.5 38 76.5-0.2 0-15.7-14.2-34.5-31.5-18.9-17.4-35.1-32.3-36-33.3-1-0.9-2-1.5-2.3-1.2-0.2 0.3 18.7 19.6 42 43 23.3 23.4 42.7 42.2 43 41.7 0.3-0.4-8.8-24.1-20.3-52.7l-20.7-52c-43.9 0-53.5 0.4-53.5 1zm61-0.3c0 0.5 9.7 25.4 21.7 55.6 12 30.1 22 54.7 22.3 54.7 0.3 0 10.1-24.2 21.9-53.7 11.8-29.6 21.6-54.6 21.8-55.6 0.3-1.6-1.2-1.7-19.2-1.7-15.2 0-19.4 0.3-19 1.2 0.3 0.7 6.3 3.5 13.4 6.2 7.1 2.8 12.8 5.5 12.7 6.2-0.1 0.6-7.1 18.8-15.6 40.3-8.5 21.4-15.7 39-16 39-0.3 0-7.5-17.6-16-39.1-8.5-21.5-15.6-39.6-15.8-40.2-0.2-0.6 5.5-3.3 12.7-6.1 7.2-2.8 13.3-5.6 13.6-6.3 0.4-0.9-3.8-1.2-19-1.2-10.7 0-19.5 0.3-19.5 0.7zm74.7 51.3c-11.4 28.6-20.5 52.3-20.2 52.8 0.3 0.4 19.8-18.6 43.3-42.2 23.5-23.5 41.6-42.2 40.2-41.5-1.4 0.7-6.1 4.7-10.5 8.9-4.4 4.2-19.8 18.5-34.3 31.8-14.4 13.3-26.3 24.2-26.5 24.2-0.1 0 8.4-17.2 18.9-38.3l19.1-38.2c32.3-5.4 42.3-7.5 43.2-8.2 1.3-1-4-1.2-25.5-1.3h-27.1z"/>
</svg>