<svg version="1.2" xmlns="http://www.w3.org/2000/svg" viewBox="0 0 32 32" width="32" height="32">
	<title>discord-svg</title>
	<style>
		.s0 { fill: #650000 } 
	</style>
	<path id="Path 0" fill-rule="evenodd" class="s0" d="m10.8 4.1c0.6-0.1 1.6 0.8 2.2 1.9 0.5 1.1 1.8 2 2.7 2 1 0.1 2.5-0.9 3.3-2.1 1.3-1.9 1.9-2 4.5-1.2 2.6 0.9 3.3 1.9 5.2 8.4 1.3 4.1 2.3 8.1 2.3 8.9 0 0.8-1.3 2.3-3 3.2-1.6 1-4.1 1.8-5.5 1.8-1.4 0-2.7-0.7-3-1.5-0.3-0.9-1.7-1.5-3.5-1.5-1.8 0-3.2 0.6-3.5 1.5-0.3 0.8-1.6 1.5-3 1.5-1.4 0-3.9-0.8-5.5-1.8-1.7-0.9-3-2.3-3-3 0-0.6 1-4.6 2.2-8.8 1.6-5.4 2.9-7.9 4.3-8.5 1.1-0.4 2.6-0.8 3.2-0.8zm-5.3 11.1l-1.9 6.7c4.6 2.3 6.2 2.7 6.5 2.4 0.3-0.3-0.1-0.7-0.8-0.9-0.6-0.2-1.2-0.7-1.2-1.2 0-0.4 3.6-0.7 8-0.7 4.4 0 8 0.3 8 0.7 0 0.5-0.6 1-1.3 1.2-0.6 0.2-1 0.6-0.7 0.9 0.3 0.3 1.9-0.1 3.5-0.9l3-1.5c-2.9-10.4-4.2-13.7-4.9-14.1-0.6-0.4-1.6-0.8-2.1-0.8-0.6 0.1-0.2 0.6 0.7 1.3 1 0.7 1.7 1.4 1.8 1.7 0 0.3-3.6 0.5-8 0.5-4.4 0-8-0.2-8-0.5 0.1-0.3 0.8-1 1.8-1.7 0.9-0.7 1.2-1.2 0.7-1.3-0.6 0-1.5 0.4-2.1 0.8-0.7 0.4-2 3.7-3 7.4zm6.6 0.8c0.6 0 1.3 0.6 1.6 1.2 0.3 0.7 0.1 1.7-0.5 2.3q-1.1 1-2.2 0c-0.6-0.6-0.8-1.6-0.5-2.3 0.4-0.6 1.1-1.2 1.6-1.2zm8 0c0.6 0 1.3 0.6 1.6 1.2 0.3 0.7 0.1 1.7-0.5 2.3q-1.1 1-2.2 0c-0.6-0.6-0.8-1.6-0.5-2.3 0.4-0.6 1.1-1.2 1.6-1.2z"/>
</svg>