<svg version="1.2" xmlns="http://www.w3.org/2000/svg" viewBox="0 0 32 32" width="32" height="32">
	<title>github-svg</title>
	<style>
		.s0 { fill: #650000 } 
	</style>
	<path id="Path 0" fill-rule="evenodd" class="s0" d="m9.3 4c1.2-0.1 2.9 0.6 3.7 1.5 0.8 0.9 2.2 1.6 3 1.6 0.8 0 2.2-0.7 3-1.6 0.8-0.9 2.5-1.6 3.7-1.5 1.4 0 2.4 0.7 2.6 1.8 0.2 0.9 0.3 4.4 0.1 7.7-0.1 3.3-0.3 7.4-0.3 9 0 1.6 0.6 3.4 1.4 4 0.8 0.6 1.4 1.3 1.5 1.7 0 0.5-1 0.7-2.2 0.5-1.7-0.1-2.4-1-2.8-3.1-0.3-1.6-1.1-3.1-1.8-3.3-0.7-0.2-1.2 0.8-1.2 2.7 0 1.8 0.6 3.2 1.5 3.5 0.8 0.3 1.5 0.9 1.5 1.5 0 0.6-0.8 1-1.8 1-0.9 0-2.3-0.5-3-1.2-0.7-0.7-1.2-2.8-1.2-4.6 0-1.7-0.5-3.2-1-3.2-0.6 0-1 1.1-1 2.5 0 1.4-0.5 3.4-1 4.5-0.6 1.1-1.9 2-3 2-1.1 0-2-0.4-2-1 0-0.6 0.7-1.2 1.5-1.5 0.9-0.3 1.5-1.7 1.5-3.5 0-1.9-0.5-2.9-1.3-2.7-0.6 0.2-1.4 1.7-1.7 3.3-0.4 2.1-1.1 3-2.8 3.1-1.2 0.2-2.2 0-2.2-0.5 0.1-0.4 0.7-1.1 1.5-1.7 0.8-0.6 1.4-2.4 1.4-4 0-1.6-0.2-5.7-0.3-9-0.2-3.3-0.1-6.8 0.2-7.8 0.2-0.9 1.4-1.7 2.5-1.7zm0.3 13.8c1.1 1.8 2.3 2.2 6.4 2.2 4.1 0 5.3-0.4 6.4-2.3 1-1.5 1.3-3.6 0.8-6.9-0.7-4.6-0.7-4.7-3-3.3-1.2 0.8-3.1 1.5-4.2 1.5-1.1 0-3-0.7-4.3-1.5-2.2-1.4-2.2-1.3-2.9 3.3-0.5 3.3-0.2 5.4 0.8 6.9z"/>
</svg>