<svg version="1.2" xmlns="http://www.w3.org/2000/svg" viewBox="0 0 40 40" width="40" height="40">
	<title>html-svg</title>
	<style>
		.s0 { fill: #650000 } 
	</style>
	<path id="Path 0" fill-rule="evenodd" class="s0" d="m4.8 4h30.2l-0.5 3.8c-0.3 2-1 8.6-1.6 14.7-0.6 6.1-1.3 11.3-1.5 11.8-0.2 0.4-2.9 1.4-5.9 2.2-4.9 1.3-6.1 1.3-11 0-3-0.8-5.7-1.8-5.9-2.3-0.2-0.4-0.9-5.6-1.5-11.7-0.6-6.1-1.4-12.7-1.7-14.8zm3.7 5.8c0.3 2.1 1 7.8 1.5 12.8 0.6 4.9 1.3 9.2 1.7 9.6 0.5 0.3 2.5 1.1 4.5 1.7 2.8 0.9 4.8 0.9 7.5 0 2.1-0.6 4.1-1.4 4.5-1.7 0.4-0.4 1.2-4.7 1.8-9.7 0.5-4.9 1.2-10.6 1.5-12.7l0.5-3.8h-24zm12.2 0.5c5.8 0.2 8.7 0.7 8.9 1.5 0.3 1-1.7 1.3-7.6 1.3-4.7 0-8 0.4-8 1 0 0.5 0.2 1.7 0.5 2.5 0.3 1.1 2.1 1.5 14 1.5l-0.8 5.7c-0.4 3.2-1 6-1.3 6.3-0.3 0.3-3.2 0.5-6.4 0.5-3.3 0-6.1-0.2-6.4-0.5-0.3-0.3-0.9-2-1.4-3.8-0.6-2.7-0.5-3.2 1-3.2 1.1 0 1.8 0.8 1.8 2 0 1.2 0.8 2.2 2.2 2.6 1.2 0.3 3.5 0.3 5 0 2.3-0.5 2.8-1.1 2.8-6.6h-13l-0.5-4.5c-0.3-2.5-0.3-5 0-5.5 0.4-0.7 4-1 9.2-0.8z"/>
</svg>