<svg version="1.2" xmlns="http://www.w3.org/2000/svg" viewBox="0 0 40 40" width="40" height="40">
	<title>javascript-svg</title>
	<style>
		.s0 { opacity: 1;fill: #650000 } 
	</style>
	<path id="Path 0" class="s0" d="m24.3 9.5c-1.8 1.2-2.2 2.3-2.1 5.2 0.3 3 1 4.2 3.8 6.1 1.9 1.3 3.5 2.8 3.5 3.4 0 0.6-0.6 1.3-1.3 1.5-0.6 0.2-1.9-0.4-2.7-1.2-1.3-1.3-1.7-1.3-3.5 0l-2 1.5c3.3 3.3 5.4 4 7.8 4 2 0 4.5-0.5 5.5-1.2 1.4-1 1.7-2.3 1.5-5.3-0.3-3.5-0.8-4.3-4-6-2.1-1.1-3.8-2.6-3.8-3.3 0-0.6 0.3-1.2 0.7-1.2 0.5 0 1.2 0.4 1.8 1 0.7 0.7 1.6 0.5 3-0.5 2-1.5 2-1.5-0.5-3.5-1.4-1.2-3.2-2.1-4-2.1-0.8 0.1-2.5 0.8-3.8 1.6zm-10.2 7.3c0 4.2-0.3 8-0.7 8.4-0.4 0.5-1.4 0.3-2.1-0.2-0.6-0.6-2.1-0.8-3.2-0.5-1.1 0.3-2 0.9-2 1.5 0 0.6 0.7 1.7 1.5 2.5 0.8 0.8 3 1.5 4.7 1.5 1.9 0.1 4-0.7 5-1.7 1.4-1.4 1.8-3.6 1.8-10.6 0-8.6 0-8.7-2.5-8.7-2.5 0-2.5 0.1-2.5 7.7z"/>
</svg>