<svg version="1.2" xmlns="http://www.w3.org/2000/svg" viewBox="0 0 32 32" width="32" height="32">
	<title>linkedin-svg</title>
	<style>
		.s0 { fill: #650000 } 
	</style>
	<path id="Path 0" fill-rule="evenodd" class="s0" d="m16 3c7.2 0 10.9 0.4 11.8 1.2 0.8 0.9 1.2 4.7 1.2 11.8 0 6.9-0.4 10.9-1.2 11.8-0.8 0.8-4.6 1.2-11.7 1.2-7.3 0-11-0.4-11.9-1.2-0.8-0.9-1.3-4.9-1.4-11.9-0.2-7.9 0.1-10.8 1.2-11.7 0.9-0.8 5.2-1.2 12-1.2zm-10 23h20v-20h-20zm5-18c0.6 0 1.3 0.6 1.6 1.2 0.3 0.7 0.1 1.7-0.5 2.3q-1.1 1-2.2 0c-0.6-0.6-0.8-1.6-0.5-2.3 0.4-0.6 1.1-1.2 1.6-1.2zm0 5c0.6 0 1 2.2 1 5 0 2.7-0.4 5-1 5-0.6 0-1-2.3-1-5 0-2.8 0.4-5 1-5zm6.3 0c1.7 0 3.8 0.5 4.5 1.2 0.7 0.7 1.2 3 1.2 5 0 2.1-0.4 3.8-1 3.8-0.6 0-1-1.2-1-2.8 0.1-1.5-0.5-3.3-1.2-3.9-1-1-1.6-1-2.6 0-0.7 0.6-1.2 2.4-1.2 3.9 0 1.6-0.4 2.8-1 2.8-0.6 0-1-2.3-1-5 0-5 0-5 3.3-5z"/>
</svg>