<svg version="1.2" xmlns="http://www.w3.org/2000/svg" viewBox="0 0 372 154" width="50" height="50">
	<title>asp</title>
	<style>
		.s0 { fill: #900000 } 
	</style>
	<path id="Path 0" fill-rule="evenodd" class="s0" d="m72 0.4c1.4 0.3 3.7 0.9 5.3 1.5 1.5 0.6 3.7 2.6 5 4.3 1.3 1.8 15.5 31.6 31.5 66.3 21.6 46.7 29.2 64 29.2 66.8 0 2-0.7 5.1-1.5 6.7-0.8 1.6-2.7 3.9-4.2 4.9-1.6 1-4.4 2.2-6.3 2.6-2.2 0.4-4.8 0.2-7-0.7-1.9-0.8-4.7-3-6.1-4.9-1.4-1.9-5.4-9.8-15.4-31.8l-62-0.1-7.2 15.7c-4 8.7-8.3 16.8-9.5 17.9-1.3 1.2-3.9 2.7-5.8 3.3-1.9 0.7-4.8 0.9-6.5 0.5-1.7-0.4-4.2-1.5-5.7-2.5-1.6-1.1-3.5-3.4-4.4-5.1-1.1-2.3-1.5-4.8-1.1-7.8 0.3-3 9.9-25.1 29.2-67 15.7-34.4 29.4-63.6 30.3-64.8 0.9-1.3 3.4-3.2 5.7-4.3 2.2-1.1 5.1-1.7 6.5-1.5zm-17.8 85.7c-0.1 0.5 7.5 0.9 16.8 0.9 10.7 0 17-0.4 17-1 0-0.6-3.7-8.9-8.2-18.5-4.6-9.7-8.5-17.5-8.8-17.5-0.3 0-4.1 8-8.5 17.6-4.4 9.7-8.1 18-8.2 18.5zm153.7-85.4c4.1 0.3 10.9 1.4 15 2.5 4.1 1 10.6 3.3 14.4 5.1 3.8 1.8 8.2 4.7 9.7 6.5 1.6 1.7 3.2 4.7 3.5 6.5 0.3 2-0.1 4.8-1.3 7.6-1 2.4-3.2 5.3-4.8 6.4-1.6 1.1-4.6 2.3-6.5 2.5-2.5 0.3-5.7-0.5-11.5-3.1-4.4-1.9-10.7-4.1-14-4.7-3.6-0.8-9.1-1-13.7-0.6-4.3 0.3-9.7 1.4-12 2.4-2.3 0.9-5.2 3.1-6.6 4.7-2.1 2.6-2.4 3.7-1.9 8 0.4 4.3 1.1 5.5 4.4 8.5 3.1 2.8 7.5 4.7 21.4 9.4 9.6 3.2 20.3 7.4 23.9 9.2 3.6 1.9 8.9 5.5 11.9 8.1q5.3 4.8 8.5 11.3c2.9 6 3.1 7.2 3.1 17 0 9.6-0.3 11.1-3 16.9-2.1 4.6-4.7 8-9 11.8-3.8 3.4-8.6 6.4-13 8.3-3.9 1.6-10.1 3.4-14 4.1-4.2 0.7-11.1 1-17 0.6-6.7-0.3-12.6-1.4-18-3.1-4.4-1.4-10.7-4.2-14-6.1-3.3-2-8-5.3-10.4-7.3-2.5-2-5.3-5.1-6.3-6.7-1-1.6-1.8-4.8-1.8-7 0-2.5 0.8-5.3 2.2-7.5 1.3-1.9 3.9-4.3 5.8-5.2 1.9-1 4.9-1.8 6.5-1.8 1.9-0.1 4.9 1.2 8 3.5 2.8 1.9 6.8 4.7 9 6.2 2.2 1.5 6.7 3.5 10 4.6 4.7 1.4 8.1 1.8 15.5 1.5 7.1-0.3 10.7-1 14.3-2.6 3.3-1.5 5.1-3.2 6.1-5.4 0.8-1.8 1.2-4.4 1-5.8-0.3-1.4-1.1-3.5-1.7-4.8-0.7-1.2-3.2-3.3-5.7-4.6-2.5-1.3-11-4.5-19-7.1-8-2.6-17.9-6.5-22-8.6-4.1-2.1-9.7-5.8-12.5-8.2-2.8-2.5-6.4-7-8.1-10.3-1.8-3.2-3.7-8.3-4.3-11.1-0.6-2.9-1.1-7.4-1.1-10 0-2.7 0.8-7.7 1.9-11.3 1.2-3.9 3.6-8.6 6-11.7 2.3-2.9 6.5-6.9 9.4-8.8 2.8-1.9 8.6-4.7 12.7-6.1 4.1-1.5 10.6-3 14.5-3.4 3.9-0.4 10.4-0.6 14.5-0.3zm89.3-0.6c9.2 0 20.2 0.4 24.5 0.9 4.2 0.6 10 1.8 12.7 2.7 2.8 0.9 7.7 2.9 11 4.6 3.4 1.7 8.7 5.7 12.1 9.1 3.9 3.9 7.2 8.4 9.1 12.6 1.7 3.6 3.6 8.9 4.2 11.8 0.6 2.8 1.1 9.1 1.1 14 0 4.8-0.7 11.4-1.6 14.7-0.8 3.3-2.7 8.5-4.2 11.5-1.4 3-5.3 8.3-8.7 11.7-4.4 4.5-8.2 7.2-14.5 10.2-5.8 2.8-11.4 4.5-17.5 5.6-4.9 0.8-13.6 1.5-29.5 1.5v16.3c0.1 15.2-0.1 16.4-2.2 19.7-1.3 1.9-3.9 4.3-5.8 5.3-2.5 1.3-4.6 1.6-7.5 1.2-2.2-0.4-5.2-1.5-6.7-2.6-1.6-1-3.5-3.3-4.3-4.9-1.3-2.6-1.5-12.3-1.5-69 0-56.7 0.2-66.4 1.5-69 0.8-1.6 2.7-3.8 4.3-4.9 1.5-1 3.6-2.1 4.7-2.4 1.1-0.2 9.5-0.5 18.8-0.6zm-1.3 82.4c24.7-1.1 28.5-1.6 32.5-3.3 2.8-1.2 6.4-3.6 8.2-5.4 1.8-1.8 4-5.1 4.9-7.3 1-2.6 1.6-6.7 1.6-11.5 0-4.1-0.6-8.8-1.2-10.5-0.6-1.7-2.8-4.7-4.8-6.8-2.1-2.1-6.1-4.7-9.2-5.8-4.1-1.6-8.8-2.3-18.6-2.7l-13.1-0.5z"/>
</svg>