<svg version="1.2" xmlns="http://www.w3.org/2000/svg" viewBox="0 0 746 594" width="50" height="50">
	<title>bootstrap</title>
	<style>
		.s0 { fill: #900000 } 
	</style>
	<path id="Path 0" fill-rule="evenodd" class="s0" d="m604.5 0.5l8 2.8c4.4 1.6 10.5 4.3 13.5 6 3 1.7 8 5.2 11 7.7 3 2.6 7.7 7.5 10.4 11.1 2.7 3.5 6.6 10 8.6 14.4 2.1 4.4 4.6 11.1 5.6 15 1.5 5.9 1.7 10.7 1.5 30-0.1 12.6 0.3 30.9 0.9 40.5 0.5 9.6 1.7 23.1 2.5 30 0.9 6.9 2.7 17.9 4 24.5 1.3 6.6 3.6 16.1 5 21 1.4 4.9 4.4 13.5 6.6 19 2.2 5.5 6.1 13.6 8.7 18 3 5 8 11.4 13.7 17.1 7.5 7.7 10.4 9.8 17.5 13.2 4.7 2.2 11.4 4.6 15 5.3 3.6 0.6 7.1 1.3 7.8 1.5 0.9 0.3 1.2 5.1 1.2 19.4 0 14.3-0.3 19.1-1.2 19.4-0.7 0.2-4.2 0.9-7.8 1.5-3.6 0.7-10.3 3.1-15 5.3-7.1 3.4-10 5.5-17.5 13.2-5.7 5.7-10.7 12.1-13.7 17.1-2.6 4.4-6.5 12.5-8.7 18-2.2 5.5-5.2 14-6.6 19-1.4 5-3.7 14.4-5 21-1.3 6.6-3.1 17.6-4 24.5-0.8 6.9-2 20.4-2.5 30-0.6 9.6-1 27.9-0.9 40.5 0.2 19.3 0 24.1-1.5 30-1 3.9-3.5 10.6-5.6 15-2 4.4-5.9 10.9-8.6 14.4-2.7 3.6-7.4 8.5-10.4 11.1-3 2.5-8 6-11 7.7-3 1.7-9.1 4.4-21.5 8.8h-463l-8-2.8c-4.4-1.6-10-4-12.5-5.4-2.5-1.5-7.1-4.7-10.4-7.2-3.2-2.5-8-7.3-10.7-10.6-2.7-3.3-6.5-8.9-8.3-12.5-1.9-3.6-4.7-10.5-6.1-15.5-2.6-8.7-2.7-9.7-2.6-33.5 0.1-13.5-0.3-32.1-0.9-41.5-0.6-9.4-1.7-22.4-2.6-29-0.8-6.6-2.6-17.9-4-25-1.4-7.1-4.5-18.9-6.9-26-2.3-7.1-5.6-15.9-7.2-19.5-1.6-3.6-5.2-10.1-8-14.5-2.9-4.5-8.6-11.4-13.2-15.8-6.1-5.8-10.1-8.7-16.4-11.6-4.5-2.2-11.1-4.5-14.7-5.2-3.6-0.6-7.1-1.3-7.8-1.5-0.9-0.3-1.2-5.1-1.2-19.4 0-14.3 0.3-19.1 1.2-19.4 0.7-0.2 4.2-0.9 7.8-1.5 3.6-0.7 10.2-3 14.7-5.2 6.3-2.9 10.3-5.8 16.4-11.7 4.6-4.4 10.3-11.2 13.2-15.7 2.8-4.4 6.5-11.1 8.3-15 1.7-3.9 5-12.9 7.3-20 2.3-7.1 5.2-18.6 6.6-25.5 1.3-6.9 3.1-17.9 3.9-24.5 0.9-6.6 2-19.6 2.6-29 0.6-9.4 1-28 0.9-41.5-0.1-23.8 0-24.8 2.6-33.5 1.4-4.9 4.2-11.9 6.1-15.5 1.8-3.6 5.6-9.2 8.3-12.5 2.7-3.3 7.5-8.1 10.7-10.6 3.3-2.5 7.5-5.5 9.4-6.7 1.9-1.1 6.5-3.2 10.3-4.6 3.7-1.4 9.1-3 11.9-3.5 3-0.5 104.3-0.8 462.3-0.6zm-345.5 455.5c98 0 133-0.5 141-1 8-0.5 18.3-1.7 23-2.6 4.7-0.9 11.9-2.7 16-4.1 4.1-1.4 10.6-4.1 14.5-6 3.9-2 9.7-5.5 13-7.8 3.3-2.3 8.5-6.9 11.6-10.1 3.1-3.3 7.2-8.4 9.1-11.4 2-3 5-8.9 6.6-13 1.7-4.1 3.8-11.5 4.7-16.5 1.3-6.7 1.6-12.2 1.2-21.5-0.3-9-1.1-14.4-2.7-19.5-1.2-3.9-3.6-9.7-5.3-13-1.6-3.3-5.1-8.7-7.6-12-2.5-3.2-7.5-8.3-11.1-11.3-3.6-2.9-10.5-7.3-15.5-9.7-5-2.4-12.7-5.3-17.3-6.4-4.5-1.2-9.4-2.1-11-2.1-1.7 0 0.5-1.1 5.8-2.9 4.7-1.6 10.3-3.9 12.5-5.2 2.2-1.3 6.6-4.3 9.9-6.8 3.2-2.5 7.8-7.1 10.3-10.1 2.5-3 6-8.2 7.8-11.5 1.8-3.3 4.3-9.1 5.6-13 2.1-6 2.4-8.9 2.4-21 0-10.4-0.5-15.7-1.8-20.5-1-3.6-3.3-9.6-5.2-13.5-1.9-3.9-5.6-9.7-8.3-13-2.6-3.3-7.5-8.2-10.7-10.8-3.3-2.7-10.5-7.1-16-9.8-5.9-2.9-14.1-6-20-7.4-5.5-1.4-14.7-3-20.5-3.5-5.8-0.6-40.1-1-76.3-1h-65.7zm52.2-276.2l40.1 0.5c33.2 0.3 41.3 0.7 46.4 2 3.5 1 9 3.1 12.3 4.7 3.3 1.6 7.5 4.3 9.2 5.8 1.8 1.6 4.7 5.1 6.5 7.8 1.7 2.7 3.9 7.6 4.9 10.9 1.2 4.5 1.6 8.5 1.2 16-0.3 8.9-0.7 10.8-3.8 17-1.9 3.9-5.6 9.1-8.2 11.7-2.9 2.9-7.7 6.2-12.1 8.2-3.9 1.9-10.1 4.1-13.7 5-3.6 0.9-11.2 2-17 2.6-5.8 0.5-23 0.9-66 1zm0 132l43.7 0.4c41.1 0.4 44.1 0.5 51.6 2.6 4.4 1.2 11.6 3.9 16 6 5.8 2.8 9.4 5.5 12.9 9.3 2.7 2.9 5.7 7 6.8 9.1 1 2.1 2.5 6.6 3.3 10 0.8 3.4 1.5 9.2 1.5 12.8 0.1 3.5-0.4 8.9-1 12-0.5 3-2.3 8.2-3.9 11.5-1.6 3.3-5.3 8.3-8.2 11.3-3.2 3.1-8.2 6.6-12.4 8.6-3.8 1.9-9.7 4.1-13 5-3.3 0.8-10 1.9-15 2.5-4.9 0.6-25.5 1-82.5 1.1z"/>
</svg>