<svg version="1.2" xmlns="http://www.w3.org/2000/svg" viewBox="0 0 454 512" width="50" height="50">
	<title>a</title>
	<style>
		.s0 { fill: #900000 } 
	</style>
	<path id="Path 0" fill-rule="evenodd" class="s0" d="m0 0h454l-0.5 3.8c-0.3 2-2.1 21.7-4 43.7-2 22-5.1 57.3-7 78.5-1.9 21.2-5.3 59-7.5 84-2.2 25-5.6 62.8-7.5 84-1.9 21.2-5.2 58.5-7.4 83-2.2 24.5-4.8 53.3-7.6 83.7l-66 18.3c-36.3 10.1-77.9 21.6-92.5 25.7-16.3 4.5-27.5 7.1-29 6.8-1.4-0.3-43.2-11.9-183.5-50.7l-2.8-30.2c-1.5-16.5-5-55.3-7.7-86.1-2.8-30.8-7-78.6-9.5-106.3-2.5-27.6-6.5-72.8-9-100.5-2.4-27.6-6-68.2-8-90.2-1.9-22-3.7-41.7-4-43.8zm82.6 120c1.9 15.2 3.4 27.9 3.4 28.3 0 0.4 31.8 0.7 70.5 0.7 62.9 0 70.5 0.2 70.3 1.6-0.2 1-23 11-67.8 29.6-37.1 15.4-67.5 28.1-67.6 28.2-0.1 0.1 0.7 11.4 1.7 25.1 1.1 13.8 2.2 26.5 2.5 28.3l0.4 3.2c155.8 0 200.9 0.4 200.6 0.8-0.2 0.4-0.6 6.6-1 13.7-0.4 7.2-0.8 15.5-1.1 18.5-0.2 3.1-0.6 10.5-1 16.5-0.3 6.1-0.8 14-1.1 17.5-0.2 3.6-0.7 6.8-1 7-0.3 0.3-15 4.6-32.7 9.6l-32.2 9.1c-48.8-12.2-63.1-15.9-63.2-16-0.1-0.1-0.9-8.5-1.7-18.7-0.9-10.1-1.8-20.4-2.1-22.7l-0.5-4.3c-52.4 0-59 0.3-59 1.3 0 0.7 1.6 19.9 3.5 42.7 2 22.9 3.5 42.3 3.5 43.3 0 1 0.6 2 1.3 2.2 0.7 0.2 27.3 8.1 59.2 17.5 31.9 9.4 58.9 17 60 17 1.1 0 5.2-0.9 9-2.1 3.9-1.1 7.7-2.2 8.5-2.4 0.9-0.2 23.8-6.9 51-14.9 27.3-8.1 49.6-14.7 49.8-14.8 0.1-0.1 3.6-39 7.7-86.3 4.2-47.3 7.5-87.2 7.5-88.7v-2.8c-99.2 0-128.2-0.3-128.4-0.7-0.2-0.4 28.9-13.3 64.8-28.6 35.8-15.4 66-28.5 67.1-29.1 1.6-1 2.2-2.8 2.8-8.6 0.4-4.1 1-9 1.2-11 0.3-1.9 0.8-6.2 1.1-9.5 0.3-3.3 0.7-8 0.9-10.5 0.2-2.4 0.8-7.7 1.2-11.8l0.8-7.3c-226.8 0.5-292.8 0.9-293 1.1-0.2 0.3 1.2 12.9 3.1 28z"/>
</svg>