<svg version="1.2" xmlns="http://www.w3.org/2000/svg" viewBox="0 0 2670 2072" width="35" height="35">
	<title>discord</title>
	<style>
		.s0 { fill: #900000 } 
	</style>
	<path id="Path 0" fill-rule="evenodd" class="s0" d="m955 0.3c2 0.2 3.3 1.6 6.3 7.2 2.2 3.9 11 20.9 19.7 38 8.7 17.1 20.3 40.7 25.8 52.5 5.5 11.8 12.5 27.3 15.6 34.5 3 7.2 6.1 13.1 6.8 13.3 0.7 0.2 9.3-0.8 19.1-2.2 9.7-1.5 28.4-3.9 41.5-5.5 13-1.7 35.6-4.1 50.2-5.5 14.6-1.4 36-3.2 47.5-4.1 11.5-0.8 28.9-1.9 38.5-2.4 9.6-0.6 35-1.6 56.5-2.2 22.5-0.7 54.2-0.9 75-0.5 19.8 0.4 46.6 1.1 59.5 1.7 12.9 0.5 33.6 1.6 46 2.4 12.4 0.9 30.4 2.2 40 3 9.6 0.9 26.5 2.5 37.5 3.6 11 1.1 30.8 3.4 44 5 13.2 1.6 30 3.9 37.3 4.9 7.2 1.1 14.1 2 15.2 2 1.1 0 2.4-1 3-2.3 0.5-1.2 5.3-12.1 10.6-24.2 5.3-12.1 14.8-32.8 21.1-46 6.2-13.2 17.1-35 24.1-48.4 7-13.4 13.4-24.6 14.2-24.8 0.8-0.3 11.6 1.3 24 3.6 12.4 2.3 35.1 6.9 50.5 10.1 15.4 3.3 36.8 8 47.5 10.5 10.7 2.5 31.7 7.7 46.5 11.5 14.8 3.8 39.6 10.5 55 14.9 15.4 4.4 38.8 11.3 52 15.5 13.2 4.1 34.6 11.1 47.5 15.4 12.9 4.4 32.5 11.2 43.5 15.2 11 4 30.8 11.4 44 16.5 13.2 5.1 35.7 14.1 50 20 14.3 5.9 37.5 16 51.5 22.3 14 6.3 28.4 12.7 38.5 17.3l17.7 27.2c9.7 15 22.5 35.1 28.5 44.7 6 9.6 17.3 28.1 25 41 7.7 12.9 19.2 32.5 25.6 43.5 6.3 11 16.6 29.4 22.9 41 6.4 11.6 15.8 29.1 21 39 5.3 9.9 15.9 30.6 23.6 46 7.7 15.4 19.1 39 25.4 52.5 6.4 13.5 16.2 34.9 21.8 47.5 5.6 12.6 15.3 35.1 21.5 50 6.2 14.9 15.2 37.1 20 49.5 4.8 12.4 12.8 33.5 17.7 47 5 13.5 14.8 41.8 21.8 63 7.1 21.2 16 49.1 19.9 62 3.8 12.9 10.7 36.8 15.1 53 4.5 16.2 11 41.2 14.5 55.5 3.5 14.3 8.4 35 10.9 46 2.5 11 7.4 34.6 11 52.5 3.6 17.9 8.8 45.8 11.6 62 2.7 16.2 7 43.7 9.4 61 2.5 17.3 5.6 41.2 7 53 1.4 11.8 3.5 30.5 4.6 41.5 1.1 11 2.9 31 4 44.5 1.1 13.5 2.6 36.2 3.5 50.5 0.8 14.3 1.9 37 2.5 50.5 0.5 13.5 1 32.5 1 42.2 0 11.2 0.4 17.8 1 17.8 0.6 0 1 10.3 1 29 0 18.7-0.4 29-1 29-0.6 0-1 7.1-1 19.2 0 10.6-0.4 30.1-1 43.3-0.5 13.2-1.4 33-2 44-0.6 11-2.2 35.1-3.6 53.5-1.4 18.4-2.9 37.3-3.4 42-0.5 4.7-1.1 8.6-1.2 8.6-0.2 0.1-9.1 6.6-19.8 14.5-10.7 7.8-29.8 21.5-42.5 30.4-12.7 8.9-32.4 22.5-44 30.2-11.6 7.7-30.9 20.3-43 28-12.1 7.7-31.7 19.8-43.5 27-11.8 7.1-33 19.5-47 27.5-14 8.1-35.6 20.1-48 26.7-12.4 6.7-35.8 18.9-52 27-16.2 8.2-40.1 19.8-53 25.9-12.9 6.1-31.8 14.7-42 19.2-10.2 4.5-25.9 11.3-35 15.2-9.1 3.8-25.5 10.6-36.5 15-11 4.4-30.1 11.8-42.5 16.5-12.4 4.7-31.7 11.8-43 15.8-11.3 4-34.3 11.8-51.3 17.4-16.9 5.5-31.3 10.1-32 10.1-0.6 0-8-9.8-16.3-21.8-8.3-11.9-19.2-27.8-24.1-35.2-4.9-7.4-13.7-20.9-19.5-30-5.7-9.1-15.4-24.8-21.5-35-6.1-10.2-14.7-25-19.3-33-4.5-8-12.6-22.6-18-32.5-5.3-9.9-13.5-25.3-18.1-34.2-4.6-8.9-8.2-16.4-7.9-16.7 0.3-0.2 9.9-4.2 21.5-8.9 11.6-4.6 30-12.4 41-17.2 11-4.8 29-13 40-18.2 11-5.2 28.8-14 39.5-19.5 10.7-5.6 26-13.7 34-18.1 8-4.3 22.7-12.7 32.8-18.6 10-5.8 18.1-10.9 18-11.2-0.2-0.4-6.8-5.8-14.8-12-8-6.2-20.3-15.9-40.5-32.2l-3.5 1.8c-1.9 1-11.4 5.3-21 9.7-9.6 4.4-26.3 11.7-37 16.3-10.7 4.6-29.2 12.2-41 16.8-11.8 4.7-32.1 12.3-45 17-12.9 4.7-33.2 11.6-45 15.5-11.8 3.9-29.8 9.5-40 12.5-10.2 3.1-25 7.3-33 9.6-8 2.2-25.5 6.7-39 10.1-13.5 3.3-34.8 8.3-47.5 11-12.7 2.7-31.6 6.5-42 8.4-10.4 2-27.3 4.9-37.5 6.5-10.2 1.7-28.8 4.4-41.5 6.1-12.7 1.7-34 4.1-47.5 5.5-13.5 1.3-34 3.1-45.5 3.9-11.5 0.8-33.2 2-48 2.7-16.8 0.7-45.4 0.9-76 0.6-27-0.3-57.1-1-67-1.7-9.9-0.6-28.8-2-42-3-13.2-1.1-32.1-2.9-42-4-9.9-1.1-27.9-3.4-40-5.1-12.1-1.6-32.8-4.8-46-7-13.2-2.2-35-6.2-48.5-8.9-13.5-2.7-34.4-7.2-46.5-10-12.1-2.8-29-6.9-37.5-9.1-8.5-2.3-22.7-6.1-31.5-8.5-8.8-2.5-25.5-7.4-37-10.9-11.5-3.5-32.9-10.4-47.5-15.4-14.6-4.9-35.5-12.3-46.5-16.4-11-4.1-27.9-10.7-37.5-14.5-9.6-3.9-25.4-10.4-35-14.4-9.6-4.1-26.2-11.5-56-25.3l-4.8 4.1c-2.6 2.2-10.8 9-18.3 15-7.4 6-17.7 14.1-22.7 17.9-5.1 3.8-9.2 7.2-9.2 7.5 0 0.3 8.2 5.3 18.2 11.1 10.1 5.9 24.8 14.3 32.8 18.6 8 4.4 23.3 12.5 34 18.1 10.7 5.5 28.3 14.2 39 19.3 10.7 5 29.2 13.4 41 18.6 11.8 5.2 30.6 13.1 62 25.8l-12.4 24c-6.8 13.2-17.9 33.9-24.6 46-6.8 12.1-18.2 31.9-25.5 44-7.2 12.1-18 29.7-24 39-5.9 9.3-14.4 22.4-18.8 29-4.4 6.6-15 22-23.6 34.3-8.6 12.2-15.9 22.2-16.3 22.2-0.5 0-14.6-4.6-31.5-10.1-17-5.6-41.8-14.1-55.3-18.9-13.5-4.8-34.2-12.4-46-17-11.8-4.5-32.1-12.5-45-17.7-12.9-5.3-34.1-14.2-47-19.8-12.9-5.7-33.6-14.9-46-20.6-12.4-5.7-40.5-19.4-62.5-30.4-22-11.1-49.7-25.4-61.5-31.9-11.8-6.5-29.8-16.6-40-22.4-10.2-5.8-28.6-16.6-41-24-12.4-7.4-33.5-20.5-47-29-13.5-8.6-34-21.9-45.5-29.6-11.5-7.7-31.4-21.2-44-30.1-12.6-8.9-29.7-21.1-38-27.1-8.2-6-17.1-12.5-19.7-14.4-2.6-1.9-5-4.4-5.3-5.5-0.2-1.1-1.4-13.7-2.5-28-1.1-14.3-2.7-36.1-3.5-48.5-0.8-12.4-2-33.3-2.7-46.5-0.9-16.1-1.3-53.6-1.3-114 0-60.2 0.4-98 1.3-114 0.7-13.2 2.2-36.8 3.3-52.5 1.1-15.7 2.8-38.2 3.9-50 1.1-11.8 3.2-31.8 4.6-44.5 1.4-12.7 4.1-34.7 6-49 1.9-14.3 5-36.1 7-48.5 1.9-12.4 5.5-33.7 7.9-47.5 2.5-13.7 6.7-36.2 9.5-50 2.8-13.7 7.6-36 10.6-49.5 3-13.5 8.9-38 13-54.5 4.2-16.5 10.9-41.7 14.9-56 4-14.3 10.3-35.7 13.9-47.5 3.5-11.8 10.2-32.7 14.7-46.5 4.5-13.7 11.6-34.9 15.9-47 4.3-12.1 11.5-31.9 16-44 4.6-12.1 12.7-33 18-46.5 5.4-13.5 15.2-37.1 21.8-52.5 6.6-15.4 16.5-37.9 22-50 5.5-12.1 16.3-35.3 24.1-51.5 7.8-16.2 21.4-43.4 30.3-60.5 8.8-17.1 21.2-40.4 27.6-52 6.3-11.6 17.8-32.2 25.7-46 7.8-13.7 21.4-36.9 30.2-51.5 8.8-14.6 20.6-33.9 26.3-43 5.7-9.1 16.4-25.9 23.9-37.4 10.8-16.6 14.3-21.2 17.1-22.6 1.9-1 13.2-6.2 25-11.5 11.8-5.4 31-13.8 42.5-18.7 11.5-5 32.3-13.5 46-19 13.8-5.5 36.3-14.2 50-19.3 13.8-5.1 34.7-12.7 46.5-16.8 11.8-4.1 31.4-10.6 43.5-14.5 12.1-3.9 31-9.7 42-13.1 11-3.3 29.7-8.7 41.5-12 11.8-3.3 32.1-8.7 45-12 12.9-3.3 35.4-8.8 50-12.1 14.6-3.4 43.2-9.4 63.5-13.5 20.3-4 39.5-7.8 42.5-8.3 3-0.6 6.6-0.9 8-0.9zm-95.5 866.8c-5 0.6-14.2 2.4-20.5 4-6.3 1.5-15.5 4.2-20.5 5.9-5 1.8-14.8 6-22 9.4-7.2 3.4-16.8 8.6-21.5 11.6-4.7 2.9-12.8 8.5-18 12.4-5.2 3.9-15.3 12.7-22.4 19.6-7 6.9-16.5 17-20.9 22.5-4.4 5.5-11.3 15-15.3 21-4 6-9.4 15-12.1 20-2.6 5-6.9 13.5-9.4 19-2.6 5.5-6.7 15.6-9.2 22.5-2.5 6.9-6.1 18.8-8.1 26.5-1.9 7.7-4.4 19.6-5.5 26.5-1.1 6.9-2.6 18.3-3.2 25.5-0.7 8.1-1 20.9-0.6 34 0.4 13.2 1.4 26.2 2.7 35 1.1 7.7 3.4 19.6 5.1 26.5 1.6 6.9 4.2 16.3 5.6 21 1.4 4.7 5 14.6 8 22 3 7.4 8.3 19.1 11.9 26 3.6 6.9 9.8 17.5 13.8 23.5 4 6 10.4 15 14.3 20 3.8 5 11.3 13.5 16.5 19 5.2 5.5 14.1 13.8 19.7 18.5 5.6 4.7 15.3 11.9 21.4 16 6.2 4.2 16.2 10.1 22.2 13.2 6 3.1 16.2 7.7 22.5 10.1 6.3 2.4 16.9 5.8 23.5 7.5 6.6 1.7 17 3.8 23 4.8 7.3 1.1 17.3 1.6 29.5 1.6 12.1 0 22.3-0.5 29.5-1.6 6-0.9 15.7-2.8 21.5-4.3 5.8-1.4 15-4.1 20.5-6 5.5-1.9 15-5.8 21-8.7 6-2.9 15.3-7.9 20.5-11 5.2-3.2 13.5-8.9 18.5-12.6 5-3.7 13.3-10.5 18.5-15.2 5.2-4.7 13.3-12.9 18-18.3 4.7-5.3 11.6-13.8 15.3-18.8 3.8-5.1 9.4-13.2 12.5-18.2 3-5 8.3-14.4 11.7-21 3.4-6.6 8.5-17.8 11.3-25 2.8-7.2 6.7-18.4 8.6-25 1.9-6.6 4.5-17.4 5.9-24 1.4-6.6 3.3-17.8 4.3-25 1.3-9.8 1.8-19.8 1.8-40.5 0-21-0.4-30.6-1.8-40.5-1-7.2-2.9-18.4-4.3-25-1.4-6.6-4.1-17.2-6-23.5-1.9-6.3-5.5-16.7-8-23-2.5-6.3-7-16.5-10.1-22.5-3-6-8.4-15.7-12-21.5-3.6-5.8-8.8-13.6-11.7-17.5-2.8-3.8-7.6-9.9-10.6-13.5-3-3.6-8.3-9.6-11.9-13.4-3.6-3.8-11.5-11.2-17.5-16.4-6-5.2-16.4-13-23-17.4-6.6-4.4-17.6-10.9-24.5-14.3-6.9-3.4-17-7.9-22.5-10-5.5-2-15-5-21-6.6-6-1.5-15.3-3.6-20.5-4.5-5.9-1-17.3-1.7-30-1.9-11.3-0.2-21.6-0.2-23 0.1-1.4 0.2-6.5 0.9-11.5 1.5zm883.5 0.5c-5.8 0.9-15.9 3.1-22.5 4.9-6.6 1.8-16.3 5-21.5 7-5.2 2.1-14.2 6.1-20 9.1-5.8 2.9-15.9 8.9-22.5 13.2-6.6 4.4-16.3 11.6-21.5 16-5.2 4.3-14.4 13-20.4 19.3-6 6.3-14.6 16.4-19.2 22.4-4.5 6-11.3 16-15 22-3.7 6-9.8 17.3-13.5 25-3.7 7.7-8.3 18.3-10.2 23.5-2 5.2-5.1 14.7-7 21-1.9 6.3-4.7 17.1-6.1 24-1.4 6.9-3.2 17.9-4.1 24.5-0.9 6.6-1.8 19.9-2.2 29.5-0.3 10.7-0.1 23.4 0.6 32.5 0.7 8.3 2.1 20.4 3.2 27 1.1 6.6 3.3 17.6 5 24.5 1.7 6.9 5.1 18.3 7.6 25.5 2.5 7.2 7.1 18.6 10.2 25.5 3.1 6.9 8.5 17.5 12 23.5 3.5 6 9.6 15.7 13.7 21.5 4 5.8 11.8 15.7 17.2 22 5.4 6.3 13.6 15 18.3 19.2 4.6 4.2 11.6 10.2 15.4 13.3 3.8 3.1 11.5 8.6 17 12.3 5.5 3.7 16.3 9.9 24 13.7 7.7 3.9 20.3 9.2 28 11.7 7.7 2.6 19.6 5.8 26.5 7.2 6.9 1.4 18.8 3 26.5 3.6 9.8 0.8 18.2 0.8 28 0.1 7.7-0.6 18.1-1.8 23-2.6 4.9-0.9 12.4-2.4 16.5-3.5 4.1-1 12.2-3.5 18-5.5 5.8-2 15.4-6 21.5-8.9 6.1-2.9 15.1-7.6 20-10.6 4.9-3 14.4-9.5 21-14.5 6.6-4.9 17.4-14.4 24-21 6.7-6.6 15.1-15.8 18.9-20.5 3.7-4.7 10.8-14.6 15.8-22 4.9-7.4 12.5-20.7 16.8-29.5 4.3-8.8 9.6-21 11.8-27 2.2-6 5.4-15.5 7-21 1.6-5.5 4.1-15.6 5.6-22.5 1.4-6.9 3.3-18.1 4.3-25 1.3-9.6 1.7-19.3 1.7-41.5 0-22.2-0.4-31.9-1.7-41.5-1-6.9-2.9-17.7-4.3-24-1.5-6.3-3.7-15.3-5-20-1.4-4.7-4.3-13.7-6.6-20-2.3-6.3-7.9-18.9-12.4-28-4.5-9.1-12.2-22.4-17-29.7-4.9-7.2-12.7-17.8-17.4-23.4-4.7-5.6-13.3-14.7-19.1-20.3-5.8-5.6-15.2-13.7-21-18.1-5.7-4.4-15.1-10.8-20.9-14.3-5.8-3.5-14.6-8.3-19.5-10.7-4.9-2.3-13.5-5.9-19-8-5.5-2-14.9-5-21-6.6-6.1-1.5-15.3-3.6-20.5-4.5-5.9-1-17.2-1.7-30-1.9-11.3-0.2-22.1-0.1-24 0.1-1.9 0.2-8.2 1.2-14 2z"/>
</svg>