<svg version="1.2" xmlns="http://www.w3.org/2000/svg" viewBox="0 0 956 980" width="35" height="35">
	<title>github</title>
	<style>
		.s0 { fill: #900000 } 
	</style>
	<path id="Path 0" fill-rule="evenodd" class="s0" d="m487.5 0.7c9.4 0.2 22.4 0.8 29 1.4 6.6 0.5 17.2 1.6 23.5 2.5 6.3 0.8 17.6 2.6 25 4 7.4 1.4 20.5 4.3 29 6.5 8.5 2.2 21.1 5.8 28 8.1 6.9 2.2 19.3 6.7 27.5 9.9 8.3 3.2 23.1 9.8 33 14.7 9.9 4.9 23 11.7 29 15.2 6 3.5 15.3 9.1 20.5 12.5 5.2 3.4 15.1 10.2 22 15.2 6.9 5 18.3 14 25.5 19.9 7.1 6 19.2 17 27 24.5 7.7 7.5 19.2 19.6 25.5 26.9 6.3 7.3 15.2 18 19.8 23.9 4.6 5.8 13.4 18.3 19.6 27.6 6.3 9.3 14.2 21.9 17.7 28 3.4 6.1 9.7 18 14 26.5 4.2 8.5 10.3 21.6 13.4 29 3.1 7.4 8.8 22.7 12.5 34 3.8 11.3 8.9 28.8 11.4 39 2.5 10.2 5.6 25 7 33 1.4 8 3.2 20.4 4 27.5 0.9 7.1 2 19.8 2.6 28 0.5 8.3 1 22.4 1 31.5 0 9.1-0.5 23.3-1 31.5-0.6 8.3-1.7 20.9-2.6 28-0.8 7.1-2.6 19.5-4 27.5-1.4 8-4.5 22.8-7 33-2.5 10.2-7.6 27.7-11.4 39-3.7 11.3-9.4 26.6-12.5 34-3.1 7.4-9.3 20.7-13.7 29.5-4.4 8.8-10.7 20.7-14.1 26.5-3.3 5.8-9.8 16.4-14.5 23.5-4.6 7.1-12.1 18-16.6 24-4.5 6-12.7 16.4-18.3 23-5.5 6.6-15.6 17.9-22.5 25-6.9 7.1-17.8 17.7-24.3 23.5-6.4 5.8-16.7 14.5-22.9 19.4-6.1 4.8-16.7 12.8-23.6 17.6-6.9 4.8-19.5 12.9-28 18-8.5 5.2-24 13.6-34.5 18.7-10.5 5.1-25.8 12-34 15.2-8.3 3.2-20.6 7.7-27.5 9.9-6.9 2.3-19.5 5.9-28 8.1-8.5 2.2-21.6 5.1-29 6.5-7.4 1.4-18.7 3.2-25 4-6.3 0.9-17.1 2.1-24 2.7-6.9 0.6-24.2 1.1-38.5 1.1-16.5 0-32.2-0.6-43-1.7-9.4-0.9-24.9-2.9-34.5-4.6-9.6-1.6-24.9-4.7-34-7-9.1-2.2-25.1-6.9-35.5-10.4-10.4-3.5-25.1-8.9-32.5-12-7.4-3.2-20.6-9.3-29.3-13.6-8.6-4.4-20.8-10.9-26.9-14.6-6.2-3.6-16.7-10.2-23.3-14.6-6.6-4.4-16.5-11.4-22-15.5-5.5-4.2-12.5-9.6-15.5-12.1-3-2.5-10.9-9.4-17.5-15.2-6.6-5.9-17-15.8-23-22-6.1-6.3-15.5-16.6-20.9-22.9-5.4-6.3-14.2-17.4-19.6-24.5-5.4-7.1-13.6-18.9-18.2-26-4.7-7.1-11.2-17.7-14.5-23.5-3.4-5.8-9.7-17.7-14.1-26.5-4.4-8.8-10.6-22.1-13.7-29.5-3.1-7.4-8.8-22.7-12.5-34-3.8-11.3-8.9-28.8-11.4-39-2.5-10.2-5.6-25-7-33-1.4-8-3.2-20.1-4-27-0.9-6.9-2-19.7-2.6-28.5-0.5-8.8-1-23-1-31.5 0-8.5 0.5-22.7 1-31.5 0.6-8.8 1.9-23 3-31.5 1.1-8.5 3.1-21.6 4.5-29 1.3-7.4 4.3-20.9 6.5-30 2.3-9.1 7.2-25.7 11-37 3.7-11.3 9.4-26.6 12.5-34 3.1-7.4 9.6-21.4 14.4-31 4.9-9.6 11.9-22.7 15.6-29 3.8-6.3 10-16.2 13.8-22 3.9-5.8 10.7-15.4 15.2-21.5 4.4-6.1 12.8-16.6 18.5-23.5 5.7-6.9 18.5-20.6 28.5-30.5 9.9-10 23.8-23 31-28.9 7.2-6 18.6-14.9 25.5-19.9 6.9-5 17.9-12.5 24.5-16.7 6.6-4.2 15.6-9.7 20-12.2 4.4-2.5 14.7-7.9 23-12.1 8.2-4.1 21.1-10.1 28.5-13.2 7.4-3.1 22.1-8.5 32.5-12 10.4-3.5 26.4-8.2 35.5-10.4 9.1-2.2 23-5.2 31-6.6 8-1.4 20.8-3.2 28.5-4.1 7.7-0.9 21-2 29.5-2.4 8.5-0.4 23.1-0.6 32.5-0.3zm-65 28.8c-7.1 0.9-20.9 3.2-30.5 5.1-9.6 1.9-22.4 4.8-28.5 6.4-6.1 1.6-18.4 5.5-27.5 8.5-9.1 3.1-21.9 7.9-28.5 10.7-6.6 2.7-17.9 7.9-25 11.3-7.1 3.5-18.6 9.6-25.5 13.5-6.9 4-17.9 10.8-24.5 15.2-6.6 4.4-16.9 11.8-23 16.3-6.1 4.5-16.2 12.7-22.5 18.1-6.3 5.5-17.6 16-25 23.4-7.4 7.4-17.9 18.7-23.4 25-5.4 6.3-13.7 16.7-18.5 23-4.8 6.3-12.5 17.3-17.2 24.5-4.7 7.2-11.4 17.9-14.9 24-3.5 6.1-10.5 19.6-15.6 30-5 10.4-11.3 24.4-13.9 31-2.6 6.6-6.9 18.5-9.5 26.5-2.6 8-6.8 22.6-9.3 32.5-2.5 9.9-5.7 24.7-7.1 33-1.4 8.2-3.3 20.9-4.1 28-0.8 7.1-1.9 22.4-2.5 34-0.7 14.1-0.7 27.7 0 41.5 0.6 11.3 1.7 26.4 2.5 33.5 0.9 7.1 2.7 19.7 4.1 28 1.4 8.2 4.6 22.9 7 32.5 2.4 9.6 6.3 23.6 8.7 31 2.4 7.4 7.3 20.7 10.7 29.5 3.5 8.8 10.7 24.8 16.1 35.5 5.3 10.7 13 24.9 16.9 31.5 4 6.6 11.4 18.1 16.6 25.5 5.1 7.4 13.5 18.7 18.6 25.2 5.1 6.4 15.1 18 22.3 25.8 7.2 7.8 19 19.7 26.4 26.4 7.3 6.6 18.4 16.1 24.6 21.1 6.2 5 16.1 12.4 22.1 16.6 6 4.1 15.6 10.5 21.4 14.1 5.8 3.6 16.4 9.7 23.5 13.6 7.1 3.9 20 10.2 28.5 14 8.5 3.9 21.4 9.1 28.5 11.7 11.8 4.3 13.7 4.7 20 4.3 5.5-0.3 7.9-0.9 11.2-3.1 2.4-1.5 5.5-4.6 7-6.9l2.8-4.2 0.6-88.1c-5.9 1-12.3 2.1-18.1 3.1-7.1 1.1-16.2 1.7-28 1.7-14.1 0-19.5-0.4-27.8-2.1-5.6-1.2-13.9-3.6-18.5-5.2-4.5-1.7-11.1-4.7-14.7-6.7-3.6-1.9-9-5.4-12-7.7-3-2.2-7.8-6.3-10.5-9.1-2.8-2.7-6.9-7.5-9.2-10.5-2.2-3-5.7-8.4-7.7-12-1.9-3.6-5-10.3-6.9-15-1.9-4.7-5.5-12.5-8-17.5-2.4-5-7.2-13-10.5-18-3.3-5-9.3-12.4-13.3-16.5-4.1-4.2-11.6-10.5-16.8-14-5.2-3.6-11.4-8.6-13.8-11.3-2.9-3.2-4.3-5.6-4.3-7.5 0-1.5 0.4-3.2 0.8-3.8 0.4-0.6 2.3-1.9 4.2-2.9 1.9-1 6.7-2 10.5-2.3 5.2-0.3 9.2 0.1 15.5 1.7 4.7 1.2 11.2 3.4 14.5 4.9 3.3 1.6 8.2 4.3 11 6.2 2.7 1.8 7.5 5.5 10.5 8 3 2.6 8 7.8 11.1 11.6 3.1 3.8 8.5 11.4 11.9 16.9 3.4 5.5 8.9 13.1 12 17 3.2 3.9 8.7 9.3 12.2 12.1 3.5 2.9 9 6.8 12.3 8.7 3.3 2 10.3 5 15.5 6.8 8.5 2.9 11 3.3 24 3.7 12.2 0.3 16.2 0 25-1.8 5.8-1.2 14.9-3.8 20.3-5.8 9.4-3.6 9.8-3.8 10.3-7.2 0.3-1.9 1.7-8 3-13.5 1.4-5.5 4.7-14.5 7.3-20 2.6-5.5 7.3-13.3 10.4-17.3 3.2-3.9 6.3-7.2 6.9-7.2q1.3 0 0.3-0.8c-0.6-0.5-5.5-1.4-11-2.1-5.5-0.7-15.6-2.3-22.5-3.7-6.9-1.3-18.1-3.9-25-5.8-6.9-1.9-17-5.1-22.5-7.1-5.5-2-14.9-6.2-21-9.2-6.1-3-15.9-8.7-22-12.7-6.4-4.3-15.6-11.7-21.9-17.7-6-5.7-14.1-14.7-18-19.9-4-5.2-9.5-13.5-12.2-18.5-2.8-5-6.7-12.6-8.6-17-2-4.4-4.9-12-6.6-17-1.6-5-4-12.8-5.2-17.5-1.2-4.7-3.2-14.8-4.5-22.5-1.3-7.7-2.9-21.4-3.6-30.5-0.7-9.5-0.9-24-0.6-34 0.3-9.6 1.3-21.6 2.1-26.5 0.9-4.9 2.5-12.5 3.6-16.8 1.1-4.2 2.9-10.5 4.1-14 1.1-3.4 4.9-12.1 8.4-19.2 3.4-7.1 8.8-16.8 12-21.5 3.2-4.7 7.6-10.8 9.9-13.5 2.4-2.8 4.5-5.6 4.9-6.3 0.4-0.6-0.4-4.9-1.8-9.5-1.3-4.5-3.1-12-3.9-16.7-0.8-4.7-1.7-13.2-2.1-19-0.4-6.1-0.2-15.8 0.5-23 0.6-6.9 2-16.8 3.1-22 1.1-5.2 3.6-14.8 5.7-21.2 2.9-9.1 4.1-11.9 5.7-12.3 1.1-0.2 4.7-0.5 8-0.5 3.3 0 10.1 0.7 15 1.5 4.9 0.9 14.6 3.5 21.5 5.7 7 2.4 20.2 8 30 12.9 9.6 4.9 23.6 12.7 31 17.5 7.4 4.7 14.3 9.1 15.2 9.8 1.4 0.9 4.5 0.4 14.5-2.1 7-1.7 17.5-4.1 23.3-5.2 5.8-1.1 16.1-2.6 23-3.5 6.9-0.9 18.6-2 26-2.6 7.4-0.5 19.9-1 27.7-1 7.9 0 20.9 0.5 29 1 8.2 0.6 22.2 2.2 31.3 3.5 9.1 1.3 22.8 3.8 30.5 5.5 7.7 1.8 16 3.7 18.5 4.3 4.4 1 4.6 1 12-4 4.1-2.7 12-7.7 17.5-11 5.5-3.3 15.4-8.8 22-12.1 6.6-3.3 16-7.7 21-9.7 5-2 14.2-5 20.5-6.7 7.2-1.8 15.2-3.2 21.5-3.5 6.6-0.4 10.8-0.2 12.2 0.6 1.8 0.8 3.1 3.8 5.8 12.3 2 6.2 4.4 15.8 5.5 21.3 1 5.5 2.4 15.6 3 22.5 0.6 6.9 0.9 16.5 0.5 21.5-0.3 4.9-1.3 13-2 18-0.8 4.9-2.6 12.9-4 17.7-1.4 4.9-2.2 9.4-1.8 10 0.4 0.7 2.7 3.8 5.3 6.8 2.5 3 7.1 9.3 10.2 14 3.1 4.7 8.4 14.1 11.7 21 3.3 6.9 7.3 16.8 9 22 1.7 5.2 4 13.8 5 19 1.1 5.2 2.5 14.4 3.2 20.5 0.7 7.1 1 18.4 0.6 32-0.3 11.5-1.3 26.6-2.2 33.5-0.9 6.9-2.5 17-3.5 22.5-1.1 5.5-3.4 15-5.1 21-1.7 6-5.2 16-7.6 22-2.4 6-6.9 15.5-10.1 21-3.1 5.5-8.8 14.3-12.8 19.5-3.9 5.2-12 14.2-18 19.9-6 5.7-15.6 13.5-21.4 17.4-5.8 3.8-16.4 9.9-23.5 13.3-7.1 3.5-19.8 8.6-28 11.3-8.3 2.7-20.2 6.1-26.5 7.5-6.3 1.4-19.4 3.8-29 5.3-9.6 1.4-17.7 2.8-18 2.9-0.3 0.2 1.2 2 3.3 4.1 2.1 2.1 5.7 6.5 8 9.8 2.2 3.3 5.5 9.1 7.3 13 1.8 3.9 4.4 10.8 5.7 15.5 1.4 4.7 3.2 13.2 4.1 19 1.3 8.8 1.6 22.1 1.6 83.5 0 55 0.3 74 1.3 76.9 0.6 2.1 2.7 5.6 4.4 7.7 1.9 2.2 5.1 4.6 7.5 5.5 3 1.1 6.6 1.4 11.8 1.2 6.2-0.4 10.1-1.4 22.5-6.2 8.2-3.2 22.6-9.5 32-14 9.4-4.5 22-11 28-14.5 6-3.4 18.6-11.4 28-17.6 9.4-6.2 22.2-15.5 28.6-20.7 6.4-5.1 16.8-13.9 23-19.4 6.3-5.6 15.9-14.8 21.4-20.5 5.5-5.8 13.9-14.9 18.6-20.4 4.7-5.5 12.1-14.5 16.4-20 4.3-5.5 12.8-17.6 19-27 6.2-9.4 14.5-22.9 18.5-30 4-7.1 10.2-19.1 13.7-26.5 3.6-7.4 9.3-20.7 12.8-29.5 3.5-8.8 8.1-21.6 10.3-28.5 2.2-6.9 5.6-18.6 7.5-26 2-7.4 4.7-19.1 6-26 1.4-6.9 3.5-19 4.6-27 1.1-8 2.5-20.1 3.2-27 0.6-6.9 1.2-24.4 1.2-39 0-14.6-0.5-32.6-1.2-40-0.6-7.4-2.1-19.8-3.2-27.5-1.1-7.7-2.9-18.7-4-24.5-1.1-5.8-3.6-16.6-5.4-24-1.9-7.4-5.2-19.6-7.5-27-2.3-7.4-7.3-21.4-11.1-31-3.7-9.6-10.6-25.1-15.2-34.5-4.6-9.4-10.6-20.8-13.2-25.5-2.7-4.7-8-13.5-11.8-19.5-3.8-6.1-10-15.3-13.7-20.5-3.7-5.2-10.9-14.7-15.9-21-5.1-6.3-14.8-17.6-21.6-25-6.8-7.4-18.3-19-25.7-25.7-7.3-6.7-18.5-16.3-24.8-21.3-6.3-5.1-16.5-12.7-22.5-16.9-6-4.2-15.7-10.6-21.5-14.2-5.8-3.7-15.9-9.6-22.5-13.2-6.6-3.6-17.9-9.2-25-12.5-7.1-3.3-16.6-7.5-21-9.2-4.4-1.7-13.9-5.2-21-7.6-7.1-2.5-19.3-6.3-27-8.5-7.7-2.2-21.9-5.5-31.5-7.4-9.6-1.8-23.1-4.1-30-4.9-6.9-0.9-18.8-2-26.5-2.6-7.7-0.5-22.1-0.9-32-0.9-9.9 0.1-22.9 0.6-29 1-6.1 0.5-16.9 1.5-24 2.4z"/>
</svg>