<svg version="1.2" xmlns="http://www.w3.org/2000/svg" viewBox="0 0 246 279" width="50" height="50">
	<title>b</title>
	<style>
		.s0 { fill: #910100 } 
	</style>
	<path id="Path 0" fill-rule="evenodd" class="s0" d="m-0.2 0h246.2l-0.5 4.8c-0.3 2.6-1.6 17.7-3 33.7-1.4 15.9-3.4 38.7-4.5 50.5-1.1 11.8-3.5 39.5-5.5 61.5-2 22-4.4 49.7-5.5 61.5-1 11.8-2.3 25.4-3.5 38.9l-13.5 3.7c-7.4 2-29.9 8.3-86.5 24.1l-39.5-10.8c-21.7-6-44.4-12.3-61.5-17l-0.8-8.7c-0.4-4.8-1.7-18.4-2.7-30.2-1.1-11.8-3.5-39.3-5.5-61-1.9-21.7-4.4-49.6-5.5-62-1.1-12.4-3.1-35.1-4.5-50.5-1.3-15.4-2.7-30.4-3.1-33.3zm45.6 54.8c0.4 2.6 1.1 10.2 1.6 16.7 0.6 6.6 2 22.4 3.1 35 1.1 12.7 2.3 26.4 2.7 30.5l0.7 7.5 106.5 0.5c0 3.5-0.7 12.2-1.6 21.5-0.9 9.4-1.7 17.1-1.7 17.2-0.1 0.1-5.4 1.6-11.7 3.4-6.3 1.7-14 3.7-17 4.5-5.4 1.4-5.7 1.3-22-3.1-9.1-2.5-16.6-4.6-16.7-4.7-0.2-0.1-0.8-5.8-1.5-12.5l-1.3-12.3c-29.1 0-31.5 0.3-31.5 1.5 0 0.9 0.9 11.8 2.1 24.3 1.1 12.5 2.4 23.1 2.7 23.4 0.4 0.4 8.1 2.8 17.2 5.3 9.1 2.5 23.3 6.4 31.5 8.6l15 4.1 63-17.7c2.7-28.6 4.6-49.8 6-65.5 1.4-15.6 2.5-28.8 2.5-29.2 0-0.4-25.3-0.7-56.2-0.7h-56.3c-1.2-15.2-1.9-22.1-2.3-25.3l-0.7-5.8h118.5c0.8-9.6 1.4-16.5 1.9-21.4 0.4-5 0.7-9.4 0.5-9.8-0.2-0.4-35.3-0.8-78-0.8h-77.6z"/>
</svg>