<svg version="1.2" xmlns="http://www.w3.org/2000/svg" viewBox="0 0 261 295" width="50" height="50">
	<title>a</title>
	<style>
		.s0 { fill: #900000 } 
	</style>
	<path id="Path 0" fill-rule="evenodd" class="s0" d="m-0.2 0h130.6c129.9 0 130.6 0 130.6 2 0 1.1-0.9 12.5-2 25.3-1.1 12.7-2.5 28.6-3 35.2-0.6 6.6-1.3 14.2-1.5 17-0.3 2.7-1 10.4-1.5 17-0.6 6.6-1.7 19.4-2.5 28.5-0.8 9.1-3.7 42.6-6.5 74.5-2.7 31.9-5.1 59.7-5.2 61.8-0.2 2.3-0.9 3.9-1.8 4.2-0.8 0.2-14.5 4.1-30.5 8.5-15.9 4.5-39.6 11-76 21.2l-38.5-10.8c-21.2-5.9-45.2-12.6-53.5-15-8.2-2.4-15.1-4.5-15.2-4.6-0.1-0.2-0.9-7.9-1.8-17.3-0.8-9.4-1.7-19.7-2-23-0.3-3.3-0.7-8.5-1-11.5-0.3-3-0.7-8.2-1-11.5-0.3-3.3-2.1-24-4-46-1.9-22-3.9-45.2-4.4-51.5-0.6-6.3-1.5-16.9-2.1-23.5-0.6-6.6-1.7-20.1-2.5-30-0.9-9.9-1.7-19.6-2-21.5-0.2-1.9-0.6-7.1-1-11.5-0.3-4.4-0.8-10.1-1.1-12.8zm92.2 200.1c-13.6-3.8-24-6.7-32-8.9-8-2.2-15.3-4.1-16.3-4.3-1.7-0.3-1.9 0.7-1.9 14.7l-0.1 15c58 15.8 75.8 20.7 77 20.9l2.3 0.6v-184h-29zm48.9-33.5c6.7-1.3 16.9-3 27.1-4.6 10.2-1.5 18.6-2.8 18.8-2.6 0.2 0.1-0.5 8-1.5 17.6-1 9.5-2.3 17.9-2.8 18.6-0.6 0.6-10.1 3.6-21.3 6.5l-20.2 5.5c0 29.3 0.1 30.4 1.7 29.9 1-0.3 14.2-4 29.3-8.2 15.1-4.1 29.4-8 31.8-8.7 3-0.7 4.4-1.7 4.7-3 0.2-1.2 1.1-9.9 1.9-19.5 0.9-9.7 2.7-29.7 4-44.5 1.4-14.9 2.4-27.2 2.3-27.3-0.1-0.1-9.4 1.1-20.7 2.8-11.3 1.6-21.8 3.2-23.3 3.5l-2.7 0.5v-50h50c0.7-5.1 1.1-9.7 1.5-13.5 0.3-3.9 0.8-9 1-11.3l0.5-4.2h-82z"/>
</svg>