<svg version="1.2" xmlns="http://www.w3.org/2000/svg" viewBox="0 0 632 632" width="35" height="35">
	<title>linkedin</title>
	<style>
		.s0 { fill: #900000 } 
	</style>
	<path id="Path 0" fill-rule="evenodd" class="s0" d="m314.9 0c169.5 0 251.7 0.4 256.1 1.1 3.6 0.5 9.6 2.1 13.5 3.5 3.9 1.3 9.5 3.9 12.5 5.7 3 1.7 8.9 6.6 13.1 10.7 4.3 4.2 9.4 10.5 11.7 14.5 2.2 3.8 5 9.7 6.1 13 1.1 3.3 2.4 8.9 3 12.5 0.8 4.5 1.1 84.7 1.1 255 0 170.3-0.3 250.5-1.1 255-0.6 3.6-1.9 9.2-3 12.5-1.1 3.3-3.9 9.1-6.1 13-2.3 3.9-7.3 10.2-11.2 14.1-3.9 3.9-10 8.8-13.6 10.8-3.6 2.1-8.8 4.7-11.5 5.8-2.8 1.1-8.4 2.6-12.5 3.4-6.2 1.1-51.1 1.3-256.5 1.4-170.8 0-251-0.3-255.5-1.1-3.6-0.6-9.2-1.9-12.5-3-3.3-1.1-8.9-3.7-12.5-5.8-3.6-2.1-9.4-6.5-12.9-9.7-3.5-3.3-8.3-8.8-10.7-12.4-2.3-3.6-5.5-9.4-7-13-1.4-3.6-3.2-9.9-4-14-1.1-6.2-1.3-52.3-1.3-257 0-203.2 0.2-250.9 1.3-257 0.7-4.1 2.6-10.7 4.2-14.5 1.6-3.8 5-9.9 7.5-13.5 2.6-3.6 7.3-8.9 10.5-11.9 3.2-2.9 8.8-7.1 12.4-9.2 3.6-2.1 9.4-4.7 13-5.9 3.6-1.2 8.5-2.3 11-2.5 2.4-0.2 4.6-0.6 4.9-0.9 0.2-0.4 112.7-0.6 250-0.6zm-255.9 64.3c-2 3.2-2 5.1-2 251.7 0 246.6 0 248.5 2 251.8 1.1 1.7 3.5 4.1 5.3 5.2 3.2 2 5.1 2 251.7 2 246.6 0 248.5 0 251.8-2 1.7-1.1 4.1-3.5 5.2-5.2 2-3.3 2-5.2 2-251.8 0-246.6 0-248.5-2-251.8-1.1-1.7-3.5-4.1-5.2-5.2-3.3-2-5.2-2-251.8-2-246.6 0-248.5 0-251.7 2-1.8 1.1-4.2 3.5-5.3 5.3zm99.5 43.2c4.9 0.2 10.3 1.2 14 2.6 3.3 1.2 8.4 3.8 11.4 5.8 3 2 7.2 5.6 9.3 8.1 2.1 2.5 5.2 7.2 6.7 10.5 1.6 3.3 3.4 8.4 4 11.3 0.6 2.8 1.1 7.8 1.1 11 0 3.1-0.7 8.4-1.6 11.7-0.8 3.3-2.7 8.2-4.2 10.9-1.5 2.7-4.8 7.2-7.3 10-2.6 2.8-7.3 6.7-10.5 8.6-3.3 1.9-8.8 4.3-12.4 5.2-3.6 1-9.4 1.8-13 1.8-3.6 0-9-0.7-12-1.5-3-0.8-8-2.7-11-4.2-3-1.6-8.2-5.5-11.5-8.8-3.8-3.8-7.2-8.5-9.2-12.8-1.8-3.7-3.8-10-4.5-13.9-0.9-5.5-0.9-9.1 0-14.8 0.7-4.7 2.4-10.2 4.7-14.7 2.2-4.5 5.6-9.4 9-12.8 3.4-3.4 8.2-6.8 12.8-9 3.9-2 9.2-4 11.7-4.5 2.5-0.5 8.1-0.7 12.5-0.5zm263.5 131.1c7.7 0.3 17.8 1.3 23.5 2.5 5.5 1.1 12.9 3.2 16.5 4.6 3.6 1.5 9.2 4.2 12.5 6.1 3.3 1.9 9.6 7.1 14 11.6 6 6.1 9.2 10.4 12.7 17.1 2.5 5 5.8 12.6 7.3 17 1.4 4.4 3.5 13 4.6 19 1.1 6.1 2.3 15.5 2.7 21 0.4 5.5 0.8 48.1 1.2 179.5h-84l-0.3-81.7c-0.3-74.6-0.5-82.4-2.1-88.8-1-3.8-3.1-9.7-4.6-13-1.6-3.3-4.8-8-7.2-10.4-2.3-2.4-6-5.2-8-6.2-2.1-1.1-6.4-2.6-9.5-3.4-3.2-0.8-8.9-1.5-12.8-1.5-3.9 0-10.1 0.7-14 1.6-3.9 0.8-9.2 2.7-11.9 4.2-2.8 1.5-7 4.7-9.5 7.2-2.5 2.5-6.1 7.7-8 11.5-1.9 4-4.2 10.9-5.2 16-0.9 5-2 11.7-2.3 15-0.3 3.3-0.5 38.3-0.6 149.5h-83.5l0.5-272.5h79.5l0.3 18.8c0.1 11.6 0.6 18.7 1.2 18.7 0.6 0 2.6-2.6 4.7-5.7 2-3.2 6.3-8.5 9.7-11.9 3.4-3.3 9-8 12.6-10.4 3.6-2.4 9.3-5.6 12.8-7.2 3.4-1.5 9.5-3.7 13.5-4.8 3.9-1.1 10.1-2.4 13.7-3 3.6-0.5 12.6-0.7 20-0.4zm-307 5.4h85v273h-85z"/>
</svg>