<svg version="1.2" xmlns="http://www.w3.org/2000/svg" viewBox="0 0 1363 114" width="150" height="25">
	<title>Novo Projeto</title>
	<style>
		.s0 { opacity: 1;fill: #900000 } 
	</style>
	<path id="Path 0" fill-rule="evenodd" class="s0" d="m1318 0.1c1.9 0 9.3 0.8 16.5 1.9 7.2 1.1 14.6 2.3 20 3.6l0.3 11.7c0.2 10.8 0.1 11.7-1.6 11.1-0.9-0.3-4.9-1.6-8.7-2.9-3.8-1.2-10.4-2.8-14.5-3.5-4.5-0.7-9.9-1-13.5-0.5-3.3 0.4-7.3 1.3-8.9 2.1-1.6 0.8-3.5 2.4-4.2 3.6-0.8 1.3-1.4 3.5-1.4 5.1 0 1.5 0.5 3.6 1 4.7 0.5 1.1 2.3 2.7 4 3.5 1.7 0.8 9.2 2.8 16.8 4.4 7.5 1.6 16.2 3.8 19.2 5 3 1.1 7.5 3.7 9.9 5.8 2.4 2.1 5.2 5.4 6.1 7.3 1 1.9 2.3 6.2 3 9.5 0.9 4.6 0.9 7.5 0 12.5-0.6 3.6-1.9 8.3-2.8 10.4-1 2.2-4 6-6.7 8.5-3.3 3.1-7.2 5.5-11.5 7-5.2 1.9-9.2 2.5-20 2.8-8.2 0.3-15.9 0-19.5-0.7-3.3-0.6-10.2-2.3-24.6-6.5l0.1-11.8c0-7.1 0.4-11.7 1-11.7 0.5 0 2.7 0.9 4.8 1.9 2 1.1 6.2 2.8 9.2 4 3 1.1 7.8 2.5 10.5 3.1 2.8 0.6 8.8 1.1 13.5 1.1 6.4 0 9.5-0.5 12.5-2 2.2-1.1 4.6-3.1 5.3-4.5 0.6-1.4 1.2-3.8 1.2-5.3 0-1.6-0.7-3.8-1.5-5-0.8-1.3-2.7-2.9-4.2-3.7-1.6-0.8-9.3-3-17.3-5-8-2-16.9-4.9-19.9-6.4-3-1.5-7.2-4.7-9.3-7.2-2.4-2.8-4.5-6.6-5.5-10-1-3.6-1.4-7.7-1.1-12 0.3-3.7 1.5-8.8 2.9-11.9 1.4-3 4.4-7.2 6.9-9.6 2.5-2.3 7-5.1 10.3-6.3 3.1-1.2 8.5-2.6 12-3.1 3.4-0.5 7.8-0.9 9.7-1zm-1318 2.9h77v21h-48v20h45v22h-45v46h-29zm103 0h76v21h-48v20h45v22h-45v25h50v21h-78zm102 0h29v88h49v21h-78zm96 0h28v109h-28zm56.1-0.1l30.7 0.3c26.1 0.3 31.4 0.6 35.7 2.1 2.7 1 7.2 3.5 9.9 5.5 2.8 2 6.2 5.5 7.7 7.7 1.5 2.2 3.4 6 4.1 8.5 0.7 2.5 1.3 8.1 1.2 12.5 0 6.6-0.6 9.1-3 14.4-1.6 3.6-4.6 7.9-6.7 9.7-2 1.9-5.5 4.3-7.7 5.4-2.2 1.1-6.8 2.7-10.3 3.5-3.9 0.9-11.3 1.5-33.7 1.5v38h-28zm27.9 51.6c17.8-0.9 22.6-1.7 24.7-2.8 1.8-0.9 4.2-3.1 5.3-4.9 1.4-2.3 2-5 2-9 0-5.1-0.4-6.2-3.3-9.3-1.8-2-4.8-4-6.7-4.5-2-0.5-7.7-1-12.8-1h-9.2zm82.3-51.5h75.7v21h-48v20h45v22h-45v25h49v5.8c0 3.1 0.3 7.9 1.5 15.3l-79.5-0.1v-43.2c0-23.8 0.3-48.3 0.6-54.5zm153.7 0h36.5l12 28.1c6.6 15.5 12.3 28.3 12.5 28.4 0.3 0.2 6-12.3 24.7-56l35.9-0.6 0.4 109.1h-27l-0.5-77.5-24 56.5-18.6-0.5-24.4-57-0.5 78.5h-27zm177 0h17c15.3 0 17.1 0.2 17.6 1.7 0.4 1 9.4 25.3 20 54 10.7 28.8 19.4 52.5 19.4 52.8 0 0.3-6.4 0.5-28.5 0.5l-6.5-20-44.3 0.5-6.3 19-14.2 0.2c-7.8 0.2-14.2-0.1-14.2-0.5 0-0.4 8.5-23.7 18.9-51.7 10.4-28.1 19.4-52.3 20-53.8zm2.3 68.1c-0.1 0.5 6.3 0.9 14.3 0.9 10.9 0 14.5-0.3 14.5-1.2 0-0.7-3-10.2-6.5-21-3.6-10.9-6.9-19.8-7.3-19.8-0.5 0-4 9.1-7.8 20.1-3.8 11.1-7 20.6-7.2 21zm86.9-68.2l30.2 0.3c28.7 0.4 30.5 0.5 36.2 2.8 3.9 1.5 7.5 3.9 10.5 6.9 3.1 3.2 5 6.2 6 9.6 0.7 2.8 1.3 8 1.3 11.5-0.1 4.3-0.8 8.1-2.1 11-1.1 2.5-3.1 5.8-4.4 7.3-1.3 1.5-4.8 4-13.3 8.5l3 1.5c1.6 0.8 4.9 3.6 7.2 6.1 2.8 3.1 7.5 11.1 13.8 23.6 5.2 10.5 9.5 19.3 9.5 19.5 0 0.3-6.7 0.5-29.5 0.5l-7.5-15.1c-4.2-8.3-8.8-16.9-10.3-19-1.5-2.1-4.3-4.5-6.2-5.4-2-0.8-6.5-1.5-16.5-1.5v41h-28zm27.8 48.2c12 0 17.1-0.4 19-1 1.9-0.5 4.6-2.1 6-3.5 2-2.1 2.6-3.9 2.9-8.8 0.3-5.5 0-6.6-2.3-9.4-1.5-2-4.1-3.7-6.4-4.3-2-0.5-7.2-1-11.5-1h-7.7zm67-48h101v21h-36v88h-28v-88h-37zm116 0h28v109h-28zm55 0l32.5 0.1 19 35.9c10.4 19.8 19.3 36 19.7 36 0.5 0 0.8-16.2 0.8-72h27v109l-32.3-0.5-18.8-35.5c-10.4-19.5-19.3-35.6-19.9-35.7-0.7-0.2-1 11.4-1 71.7h-27z"/>
</svg>