<svg version="1.2" xmlns="http://www.w3.org/2000/svg" viewBox="0 0 2560 1566" width="50" height="50">
	<title>node</title>
	<style>
		.s0 { fill: #900000 } 
	</style>
	<path id="Path 0" fill-rule="evenodd" class="s0" d="m1721.3 0.1c4.4-0.1 9.4 2.5 80.5 42.1 46.8 26.2 77 43.6 79.2 45.8 2 1.9 4.7 5.7 8.5 13.5v720l-2.7 5.5c-1.5 3-4.2 6.9-6 8.7-1.8 1.7-59.5 35.7-128.3 75.4-76.1 44-127 72.8-130 73.6-3.1 0.9-7.2 1.2-10.7 0.9-3.3-0.4-8.1-1.8-11-3.2-2.9-1.5-60.2-34.4-127.3-73.1-67.1-38.8-123.5-71.9-125.3-73.6-1.8-1.8-4.5-5.7-8.7-14.2v-297l3-6c1.7-3.2 4.8-7.4 7-9.3 2.2-1.9 59.3-35.4 127-74.5 67.7-39 125.3-71.8 128-72.8 2.8-1 7-1.9 9.5-1.9 2.5 0 6.5 0.6 9 1.3 2.5 0.8 18.5 9.4 35.5 19.2 17.1 9.8 32.5 18.4 34.3 19.2 2.7 1.1 3.7 1.1 6.7-0.2 2-0.8 4.2-2.8 5-4.5 1.3-2.6 1.5-26.2 1.5-193.5 0-161.6 0.2-190.9 1.4-193.3 0.8-1.5 2.5-3.7 3.8-4.8 1.2-1.2 3-2.4 3.8-2.7 0.8-0.3 3.6-0.6 6.3-0.6zm-196.6 620.2c-1.7 2.1-1.8 5.6-1.8 52.7 0.1 39.2 0.4 50.9 1.3 52.2 0.7 0.9 20.6 12.8 44.3 26.4 23.7 13.6 43.7 24.9 44.5 25.2 0.8 0.3 21.3-10.9 45.5-24.8 24.2-13.9 44.5-26 45.2-26.9 0.9-1.2 1.3-14.1 1.3-52.1 0.1-47.1 0-50.6-1.7-52.7-1-1.1-21-13.2-44.5-26.7-23.6-13.5-43.8-24.6-45-24.6-1.3 0-21.4 11.1-44.8 24.6-23.4 13.5-43.3 25.5-44.3 26.7zm-1250.2-267.2c3.3-0.1 7.6 0.4 9.5 1.1 1.9 0.6 59.8 33.5 128.5 73 68.8 39.6 126.5 73.3 128.3 75.1 1.8 1.8 4.5 5.7 8.7 14.2l0.3 50.5c0.1 27.8-0.1 116.2-0.5 196.5-0.8 143.8-0.8 146-2.8 148.7-1.1 1.4-3.3 3.4-5 4.4-1.7 1-5 1.8-7.5 1.8-4.1 0-11.1-3.8-79.5-42.9-45.7-26.2-76.7-44.5-79.3-47-2.4-2.2-5.3-6-8.7-13l-1-192-2.6-5.5c-1.5-3.2-4.4-7.1-7-9.4-2.4-2.1-17.2-11.2-32.9-20.3-15.7-9-31.2-17.8-34.5-19.5-4-2.1-8-3.2-12-3.5-4.4-0.4-7.3 0-11 1.4-2.7 1.1-19.6 10.4-37.5 20.7-17.9 10.3-34 20.2-35.8 21.9-1.8 1.8-4.3 5.2-7.7 12.2l-1 192-3.1 6.5c-1.9 3.9-4.7 7.7-7 9.6-2.2 1.8-37.6 22.5-78.8 46-69.9 40-75.2 42.9-79.7 42.9-3.2 0-5.6-0.7-7.5-2-1.4-1.1-3.6-3.3-6.9-7.6l-0.5-392.9 3.3-6.2c1.7-3.3 4.8-7.4 6.7-8.9 1.9-1.5 58.2-34.2 125-72.7 66.8-38.4 123-70.7 124.8-71.7 1.8-1 4.5-2.1 6-2.6 1.5-0.4 5.4-0.8 8.7-0.8zm2010.8 3c2-0.1 5.8 0.4 8.5 1.1 2.9 0.8 50.4 27.7 128.2 72.9 67.9 39.4 125.3 73.2 127.5 75.1 2.2 1.9 5.4 6.1 10 15.3v83l-2.6 5.5c-1.5 3-4.5 7.1-6.7 9-2.2 1.9-38.2 23.3-79.9 47.4-73.3 42.5-76 43.9-80.8 43.8-3.3 0-5.9-0.7-7.5-2-1.4-1-3.5-3.4-4.8-5.3-2.2-3.4-2.3-3.5-2.2-41.4 0-35.8-0.1-38.2-2-42-1.2-2.5-3.6-5-6.2-6.6-2.4-1.5-20.9-12.2-41.3-23.9-27.1-15.6-38.1-21.4-41-21.7-3.7-0.4-6.2 0.8-30 14.5-14.3 8.2-33 19-41.5 23.9-11.1 6.4-16.2 10-20.1 15.8v97l2.3 3.4c1.9 2.7 26.6 17.3 128.1 75.5 89.4 51.2 126.5 73 128 75.1 1.7 2.3 2.2 4.4 2.2 9 0 4.4-0.5 6.7-2 8.7-1.1 1.4-2.9 3.2-4 3.9-1.1 0.7-33.9 19-73 40.7-39.1 21.7-73.7 40.8-77 42.3-4.9 2.4-7.3 2.9-13 2.9-4.9 0-8.4-0.7-11.5-2.1-2.5-1.1-59.6-33.4-126.9-71.7-83.1-47.4-123.6-71-126.4-73.7-2.3-2.2-5-6-6.2-8.5-2-4.5-2-5.4-2-303.5l2.2-4.5c1.2-2.5 3.9-6.2 6-8.3 2.5-2.5 46.5-28.4 128.8-75.9 68.8-39.7 126.8-72.7 129-73.4 2.2-0.7 5.7-1.3 7.8-1.3zm-1018.3 580.3c6.5 0.2 11.3 1 15 2.4 3 1.2 58.8 32.9 124 70.5 103.1 59.5 119.3 69.2 124.6 74.3 3.9 3.9 7.1 8.2 9.1 12.4 1.7 3.6 3.6 8.9 4.2 11.8 0.8 3.6 1.1 46.4 1.1 143.7 0 97.3-0.3 140.1-1.1 143.8-0.6 2.8-2.4 8-4 11.5-1.9 4-5.1 8.4-9.1 12.5-5.7 5.6-17 12.4-125.3 74.8-65.4 37.7-120.9 69.3-123.2 70.2-3.2 1.3-7.5 1.7-17.3 1.7-10.2 0-14-0.4-17.7-1.8-2.7-1-23.2-12.8-45.8-26.1-22.5-13.3-42.1-25.4-43.5-26.7-1.9-1.8-2.3-2.8-1.5-4 0.6-0.9 6-3.4 12-5.8 6.1-2.3 14.9-6.3 19.8-8.9 4.8-2.6 9.6-4.7 10.7-4.7 1.1 0 16.1 8.4 33.3 18.6 19.5 11.6 31.9 18.4 33.2 18.2 1.1-0.2 53.8-30.3 117-66.8 63.3-36.5 115.8-66.8 116.7-67.4 1-0.6 2.2-2.1 2.8-3.3 0.7-1.6 1-46.2 1-135.8 0-88.5-0.3-134.3-1-135.7-0.7-1.6-37.5-23.4-118.3-70-64.4-37.3-117.8-67.8-118.4-67.8-0.7 0-54.2 30.5-118.8 67.8-80.8 46.5-117.8 68.4-118.5 70-0.7 1.5-1 46.4-1 135.7 0 89.2 0.3 134.2 1 135.8 0.7 1.4 12.6 8.8 34.8 21.7 20.3 11.8 36.5 20.4 40.7 21.9 4.3 1.4 9.5 2.3 13.5 2.4 3.6 0 8.8-0.7 11.5-1.6 2.8-0.9 7.2-3.5 9.8-5.9 2.9-2.5 6-6.6 10.2-15.3l0.3-136.5c0.3-127.2 0.4-136.6 2-138.3 1.5-1.6 3.7-1.8 19.5-1.7 16.3 0 17.9 0.2 19.7 2 2 2 2 3.3 2 140.3 0 89.5-0.4 140.5-1 144.7-0.6 3.6-2.3 10.1-3.7 14.5-1.5 4.4-4.8 11.2-7.4 15-2.5 3.8-7.1 9-10 11.4-3 2.4-8.6 5.9-12.4 7.7-3.8 1.8-9.7 4-13 4.9-3.3 0.8-10.7 1.8-16.5 2.2-6.4 0.3-13.8 0.1-19-0.6-4.7-0.7-11.9-2.4-16-3.8-4.1-1.4-11.1-4.2-15.5-6.3-4.4-2-22.4-11.9-40-22-23.9-13.7-33.5-19.8-37.8-24-4.2-4-7-7.9-14.2-22.3v-292.4l4.1-8.4c3.3-6.5 5.6-9.7 10.5-14.2 5.2-4.6 29-18.8 121.9-72.3 63.5-36.7 117.6-67.7 120.3-69 2.6-1.3 7.1-3.1 10-3.9 3.5-1 8.2-1.4 14.7-1.1zm-321.5-578.1c4.4 0.3 9.1 1 10.5 1.6 1.4 0.6 4.6 2.3 7.3 3.8 2.6 1.6 15.6 9.1 29 16.7 13.3 7.7 42.9 24.7 65.7 37.9 22.8 13.1 50.5 29.1 61.5 35.5 11 6.3 24.7 14.3 30.5 17.6 5.8 3.4 20.3 11.8 32.3 18.6 12.1 6.9 23.7 14.1 25.9 16 2.3 1.9 5.3 5.8 9.3 13.5l0.5 297-2.9 6c-1.6 3.3-4.2 7.2-5.8 8.7-1.5 1.4-8.2 5.7-14.8 9.6-6.6 3.8-28.1 16.2-47.7 27.6-19.7 11.3-51.7 29.8-71 41-19.4 11.2-52.8 30.4-74.3 42.8-21.4 12.4-41 23.6-43.5 24.8-2.8 1.4-7 2.5-11 2.8-3.6 0.2-8.3-0.1-10.5-0.7-2.2-0.6-40.9-22.3-86-48.4-45.1-26-101.1-58.3-124.5-71.8-26-15-44-25.9-46.5-28.4-2.5-2.5-5-6.2-8.5-15.5l0.5-295.5 3-5.4c1.7-2.9 4.4-6.5 6-8 1.7-1.4 11.3-7.4 21.5-13.3 10.2-5.8 24.1-13.8 31-17.8 6.9-4 19.9-11.5 29-16.8 9.1-5.2 23.9-13.8 33-19 9.1-5.2 18.5-10.6 21-12 2.5-1.4 8.9-5.2 14.3-8.4 5.3-3.2 9.9-5.8 10.2-5.8 0.3 0 4.9-2.6 10.3-5.8 5.3-3.2 11.7-7 14.2-8.4 2.5-1.4 8.8-5 14-8 5.2-3 18.3-10.6 29-16.8 10.7-6.2 21.8-12.4 24.5-13.7 4.3-2.1 6-2.4 13-2zm1339.5 248.7c0.8 0 12.7 6.4 26.5 14.2 17.1 9.8 25.3 15.1 26.2 16.8 0.9 1.8 1.3 9.6 1.3 29 0 15.9-0.4 27.7-1 29.5-0.9 2.5-4.7 5.1-25.3 17-13.3 7.6-25.3 14.1-26.7 14.3-1.8 0.2-9.6-3.8-27-13.8-13.5-7.8-25.1-14.9-25.8-15.8-0.9-1.3-1.2-8.8-1.2-30.7 0-15.9 0.4-29.5 0.8-30.2 0.4-0.6 12-7.7 25.7-15.7 13.8-8 25.7-14.5 26.5-14.6zm-660.5 452.1c3.3-0.1 8.7 0.6 12 1.4 3.3 0.9 8 2.8 10.5 4.2 2.5 1.5 6.7 4.7 9.3 7.2 3 2.8 6.2 7.4 8.3 11.6 2 4 3.9 10 4.6 14 0.8 5.2 0.8 8.7 0 13.5-0.7 3.6-2.5 9.3-4.2 12.8-1.7 3.6-5.3 8.5-8.5 11.7-3.2 3.2-8.2 6.8-11.7 8.5-3.5 1.7-9.2 3.6-12.8 4.2-4.9 0.9-8.3 0.9-14 0-4.2-0.6-10.1-2.4-13.5-4.1-3.5-1.7-8.3-5.4-11.6-8.8-3.5-3.5-7-8.6-9-12.8-3.3-6.7-3.4-7.5-3.4-18.5 0-11.1 0.1-11.7 3.6-19 2.2-4.6 5.5-9.4 8.5-12.5 2.8-2.7 7.2-6.2 10-7.7 2.7-1.5 7.4-3.4 10.4-4.2 3-0.8 8.2-1.5 11.5-1.5zm-21.9 15.6c-2.7 2.1-6.5 6.1-8.3 8.8-1.9 2.8-4.1 7.5-5 10.5-1 3.5-1.4 7.8-1.1 12 0.3 4.4 1.4 8.6 3.5 13 1.6 3.6 5 8.5 7.4 10.9 2.4 2.4 7.1 5.7 10.4 7.2 3.3 1.6 8.5 3.1 11.5 3.5 3.8 0.4 7.6 0.1 12-1 3.6-0.9 8.7-3.1 11.4-4.9 2.7-1.8 6.2-4.7 7.8-6.4 1.5-1.8 3.9-5.4 5.2-8 1.3-2.7 2.9-7.3 3.5-10.3 0.7-3.7 0.7-7.5 0.1-11.5-0.6-3.3-2.1-8.2-3.4-11-1.4-2.7-4.7-7.1-7.5-9.7-2.8-2.7-7.7-6-10.8-7.4-4-1.9-8-2.8-12.8-3-5.1-0.3-8.6 0.1-13 1.6-3.3 1.1-8.2 3.7-10.9 5.7zm-270.1 52.8c11.6 0.2 24.4 0.9 28.5 1.5 4.1 0.6 11.3 2 16 3.2 4.7 1.1 11.9 3.4 16 5.1 4.1 1.7 10.2 4.6 13.5 6.6 3.3 1.9 9.7 7.1 14.1 11.5 6.7 6.7 8.9 9.7 12.7 17.6 2.6 5.2 5.5 13.3 6.6 18 1.1 4.7 2.2 11.1 2.5 14.3 0.5 5.1 0.4 5.9-1.9 8.2-2.4 2.5-2.6 2.5-19.7 2.5-15.2 0.1-17.6-0.1-19.6-1.7-1.4-1.1-2.9-4.1-3.8-7.8-0.9-3.3-3.2-9.1-5.2-12.9-2.1-3.8-5.7-8.7-8.2-10.9-2.5-2.3-7.2-5.4-10.5-6.9-3.3-1.5-9.4-3.6-13.5-4.5-6-1.4-12.4-1.7-32-1.8-20.8 0-25.6 0.3-31.5 1.9-3.8 1-9.2 2.9-12 4.1-2.7 1.3-6.9 4.3-9.3 6.7-2.5 2.5-4.9 6.2-5.8 8.8-0.8 2.5-1.4 6.8-1.4 9.5 0 2.8 0.9 6.9 2 9.3 1.7 3.6 3 4.7 9.3 7.7 4.1 1.9 12.2 4.5 18.7 5.9 6.3 1.4 24.3 4.4 40 6.6 15.7 2.3 34.4 5.3 41.5 6.6 7.2 1.4 18.4 4.4 25 6.5 6.6 2.2 14.9 5.6 18.5 7.6 3.6 2 9.5 6.6 13.1 10.2 3.7 3.8 7.7 8.9 9.2 12.1 1.5 3 3.4 8.4 4.3 12 1.2 4.4 1.8 10.5 1.8 19 0 8.6-0.5 14.5-1.7 19-0.9 3.6-3.6 10.3-5.9 15-3.3 6.7-5.8 10.2-12.2 16.5-5.2 5.2-10.9 9.6-16.1 12.5-4.4 2.5-12.9 6.2-19 8.2-6 2.1-16.4 4.7-23 5.8-6.6 1.1-18.3 2.3-26 2.7-7.7 0.3-21.2 0-30-0.6-8.8-0.7-21.4-2.3-28-3.6-6.6-1.3-15.4-3.6-19.5-5-4.1-1.5-11.5-4.8-16.5-7.4-7.1-3.6-10.9-6.5-18.1-13.6-6.5-6.5-10-11-12.6-16-2-3.8-4.6-10.2-5.8-14-1.3-4.2-2.4-11.2-2.8-17.7-0.6-9.7-0.5-10.8 1.3-12.7 1.9-2.1 2.9-2.2 20-2.2 15.9 0 18.2 0.2 19.7 1.8 1 1 2.4 4.7 3.2 8.3 0.8 3.6 2.5 9.2 3.7 12.5 1.5 3.8 4.2 8 7.5 11.5 3.6 3.9 7.2 6.5 12.5 8.9 4.1 1.9 11.7 4.3 16.9 5.5 8.3 1.8 12.9 2 36.5 2 24.2 0 28-0.2 36.5-2.2 5.2-1.2 12.4-3.7 15.9-5.4 3.7-1.9 8-5.2 10.3-7.8 2.2-2.6 4.5-6.6 5.4-9.5 0.8-2.7 1.4-7.5 1.4-10.5 0-3.1-0.8-7.3-1.8-9.5-1.2-2.6-3.5-5.1-6.8-7.3-2.7-1.8-8.3-4.4-12.4-5.7-4.1-1.4-11.8-3.3-17-4.4-5.2-1.1-16.9-2.9-26-4-9.1-1.1-22.6-2.7-30-3.6-7.4-0.9-17.8-2.5-23-3.6-5.2-1.1-13.1-3-17.5-4.4-4.4-1.3-12-4.4-17-6.8-6.4-3.2-10.9-6.3-15.5-10.8-3.6-3.6-7.9-9.1-9.7-12.4-1.7-3.3-3.9-8.9-4.9-12.5-1.3-4.7-1.8-10.1-1.7-19.5 0-11.3 0.3-14 2.6-21 1.5-4.4 4-10.2 5.6-13 1.5-2.7 5.3-7.6 8.2-10.9 3-3.2 7.4-7.3 9.9-9.1 2.5-1.9 8.1-5.1 12.5-7.3 4.4-2.2 11.6-5.1 16-6.5 4.4-1.4 12.5-3.2 18-4.1 5.5-0.9 11.6-1.8 13.5-2 1.9-0.2 13-0.3 24.5-0.1zm275.8-49.8l12.6 0.5c10.1 0.4 13.3 0.8 16.1 2.4 1.9 1.1 4.1 3.1 4.7 4.5 0.7 1.3 1.3 4.3 1.3 6.7 0 2.3-0.7 5.5-1.5 7.2-0.8 1.7-2.3 3.4-3.2 3.9-1.7 0.9-1.6 1.1 0.4 3.3 1.5 1.6 2.5 4.5 3.3 9.8 0.6 4.1 1.5 8.7 3 13h-12l-0.6-5.7c-0.3-3.2-1-7.4-1.4-9.3-0.6-2.4-1.6-3.7-3.2-4.2-1.3-0.4-4-0.8-9.8-0.8v20h-10zm9.7 22.3c9 0 11-0.5 12.2-1.7 1-1 1.8-3.2 1.8-4.8 0.1-1.7-0.7-3.7-1.6-4.5-1-0.8-4.1-1.7-6.9-1.9l-5.2-0.4z"/>
</svg>